<?xml version="1.0" standalone="no"?>
<!DOCTYPE svg PUBLIC "-//W3C//DTD SVG 1.1//EN" "http://www.w3.org/Graphics/SVG/1.1/DTD/svg11.dtd" >
<!--
2013-9-30: Created.
-->
<svg>
<metadata>
Created by iconfont
</metadata>
<defs>

<font id="iconfont" horiz-adv-x="1024" >
  <font-face
    font-family="iconfont"
    font-weight="500"
    font-stretch="normal"
    units-per-em="1024"
    ascent="896"
    descent="-128"
  />
    <missing-glyph />
    
    <glyph glyph-name="x" unicode="x" horiz-adv-x="1001"
d="M281 543q-27 -1 -53 -1h-83q-18 0 -36.5 -6t-32.5 -18.5t-23 -32t-9 -45.5v-76h912v41q0 16 -0.5 30t-0.5 18q0 13 -5 29t-17 29.5t-31.5 22.5t-49.5 9h-133v-97h-438v97zM955 310v-52q0 -23 0.5 -52t0.5 -58t-10.5 -47.5t-26 -30t-33 -16t-31.5 -4.5q-14 -1 -29.5 -0.5
t-29.5 0.5h-32l-45 128h-439l-44 -128h-29h-34q-20 0 -45 1q-25 0 -41 9.5t-25.5 23t-13.5 29.5t-4 30v167h911zM163 247q-12 0 -21 -8.5t-9 -21.5t9 -21.5t21 -8.5q13 0 22 8.5t9 21.5t-9 21.5t-22 8.5zM316 123q-8 -26 -14 -48q-5 -19 -10.5 -37t-7.5 -25t-3 -15t1 -14.5
t9.5 -10.5t21.5 -4h37h67h81h80h64h36q23 0 34 12t2 38q-5 13 -9.5 30.5t-9.5 34.5q-5 19 -11 39h-368zM336 498v228q0 11 2.5 23t10 21.5t20.5 15.5t34 6h188q31 0 51.5 -14.5t20.5 -52.5v-227h-327z" />
    

    
    <glyph glyph-name="sousuo" unicode="&#58890;" d="M949.217812-65.584326 728.039535 155.526561c-0.823795 0.826831-1.687501 1.592264-2.574744 2.320858 47.224446 61.931514 75.272371 139.271974 75.272371 223.165686 0 203.455785-164.941204 368.390231-368.405326 368.390231-203.465145 0-368.405326-164.934446-368.405326-368.390231 0-203.456808 164.940181-368.390231 368.405326-368.390231 84.056792 0 161.536525 28.152177 223.529931 75.538417 0.711227-0.86674 1.457248-1.713015 2.261599-2.51938l221.238655-221.140563c16.054285-16.142655 44.891212-13.5936 64.173138 5.716188C962.816062-110.473699 965.334522-81.756657 949.217812-65.584326zM104.860436 381.012082c0 180.849928 146.614063 327.457983 327.471401 327.457983 180.856315 0 327.471401-146.608056 327.471401-327.457983 0-88.709391-35.291184-169.164794-92.582305-228.134861-1.14308-0.980327-2.265693-2.006703-3.353512-3.092431-1.111356-1.111311-2.160288-2.257413-3.161122-3.427052-58.992949-57.419757-139.545797-92.802616-228.374461-92.802616C251.474499 53.554098 104.860436 200.161131 104.860436 381.012082z"  horiz-adv-x="1024" />

    
    <glyph glyph-name="search" unicode="&#58896;" d="M439.323351 120.52219c-49.280352 0-97.09834 9.656941-142.126681 28.699646-43.480015 18.388812-82.522793 44.706201-116.043584 78.225619s-59.841305 72.560596-78.230871 116.03883C83.878729 388.513804 74.222416 436.330856 74.222416 485.609189c0 49.284473 9.656313 97.104595 28.699798 142.133138 18.388542 43.479257 44.71008 82.520435 78.231894 116.03883 33.518745 33.515325 72.562546 59.832713 116.043584 78.219479 45.027318 19.039635 92.846329 28.694529 142.125658 28.694529 49.280352 0 97.099364-9.653871 142.126681-28.694529 43.481039-18.385742 82.525863-44.704155 116.044608-78.220502 33.520791-33.518395 59.842328-72.559573 78.230871-116.03883 19.042462-45.028543 28.699798-92.848665 28.699798-142.133138 0-49.278333-9.657336-97.095385-28.701845-142.122905-18.388542-43.47721-44.708033-82.520435-78.228824-116.03883s-72.563569-59.838853-116.043584-78.226642C536.422715 130.177084 488.603703 120.52219 439.323351 120.52219zM439.323351 797.483242c-171.975699 0-311.887855-139.906423-311.887855-311.875077S267.347652 173.734112 439.323351 173.734112s311.887855 139.907447 311.887855 311.874053S611.299051 797.483242 439.323351 797.483242zM890.678206-48.734702c-22.121716 0-42.90387 8.562003-58.541653 24.115234L674.672953 128.025071l37.039062 38.20616 157.888289-153.058978c5.606924-5.606695 13.091693-8.692986 21.077901-8.692986 7.983139 0 15.464837 3.087315 21.070738 8.69094 5.616135 5.622044 8.715856 13.126972 8.715856 21.123087 0 7.980765-3.091535 15.46318-8.702552 21.067828l-0.301888 0.306992L758.714395 213.230662l38.207726 37.035498 152.611906-157.427472c15.571265-15.638165 24.144876-36.422538 24.144876-58.549487 0-22.195511-8.625801-43.054585-24.287121-58.735729C933.723298-40.112324 912.876674-48.734702 890.678206-48.734702zM281.015489 327.245392c-42.340005 42.320874-65.652899 98.584296-65.643689 158.421102 0.008187 59.818387 23.319034 116.074645 65.637549 158.4078l37.634651-37.619806c-66.60666-66.629513-66.60973-175.00071-0.007163-241.577011L281.015489 327.245392z"  horiz-adv-x="1024" />

    
    <glyph glyph-name="tuichu" unicode="&#58931;" d="M753.534207 618.274834c28.276132-20.090571 53.358395-42.850947 75.330702-68.25964 21.974354-25.431206 40.795773-52.895721 56.510307-82.397638 15.71351-29.500894 27.620166-60.731176 35.761924-93.690846 8.184738-32.958646 12.256641-66.399269 12.256641-100.277868 0-58.389852-11.117654-113.145943-33.441993-164.3133-22.280335-51.16838-52.395424-95.726202-90.38927-133.718491-37.994869-37.9708-82.554517-68.107167-133.72397-90.385567-51.126472-22.279423-105.928811-33.441647-164.277052-33.441647-57.779259 0-112.231612 11.161201-163.401066 33.441647-51.169453 22.278399-95.905116 52.414767-134.161963 90.385567-38.30085 37.992289-68.459943 82.550111-90.433274 133.718491-21.973331 51.167357-32.959996 105.924471-32.959996 164.3133 0 33.265638 3.93989 65.896826 11.774644 97.91403 7.878757 32.018228 18.996411 62.460564 33.441993 91.348498 14.444559 28.866445 32.347011 55.851029 53.664376 80.975243 21.360345 25.102724 45.216637 47.709605 71.567851 67.800175 13.831573 10.045797 28.714125 13.809517 44.73464 11.293207 16.020515-2.51631 29.02113-10.351766 39.088828-23.548322 10.023695-13.175067 13.788593-27.925003 11.292647-44.251853-2.494923-16.32685-10.37368-29.501918-23.549287-39.546691-39.526821-28.866445-69.816903-64.342424-90.871267-106.405425-21.01036-42.063001-31.516052-87.256296-31.516052-135.578862 0-41.428551 7.834753-80.515778 23.505283-117.238145 15.714534-36.724413 37.205868-68.741617 64.520053-96.054683 27.313162-27.312042 59.311211-48.957015 96.036105-64.955384 36.724894-16.019859 75.812699-24.007787 117.265462-24.007787 41.408759 0 80.496564 7.987928 117.222481 24.007787 36.724894 15.998369 68.72192 37.642319 96.036105 64.955384 27.313162 27.313066 48.980511 59.33027 64.958046 96.054683 16.020515 36.72339 24.030261 75.809593 24.030261 117.238145 0 48.957015-11.292647 95.244224-33.878963 138.883117-22.63032 43.617403-54.321365 79.552847-95.116115 107.806331-13.832597 9.410324-22.149347 22.279423-24.950251 38.60525-2.844908 16.32685 0.480974 31.383778 9.891683 45.214784 9.410709 13.175067 22.280335 21.185508 38.607855 23.986297C724.68807 630.990436 739.746637 627.686181 753.534207 618.274834L753.534207 618.274834zM511.561495 270.805074c-16.326496 0-30.290081 5.820566-41.933736 17.419741-11.599651 11.620665-17.421479 25.583678-17.421479 41.910529L452.206281 687.956869c0 16.304338 5.821827 30.442336 17.421479 42.369993 11.642632 11.927657 25.606217 17.880229 41.933736 17.880229 16.940505 0 31.210071-5.952572 42.809722-17.880229 11.642632-11.927657 17.420455-26.065655 17.420455-42.369993l0-357.821525c0-16.32685-5.777824-30.289863-17.420455-41.910529C542.771567 276.62564 528.502 270.805074 511.561495 270.805074L511.561495 270.805074z"  horiz-adv-x="1024" />

    
    <glyph glyph-name="baocun" unicode="&#58921;" d="M867.097-148.73c-236.782 0-473.561 0-710.319 0-1.621 0.57-3.219 1.368-4.881 1.662-41.11 7.36-68.489 30.932-82.43 70.13-2.399 6.751-3.64 13.94-5.426 20.924 0 236.778 0 473.558 0 710.32 0.566 1.638 1.345 3.215 1.662 4.897 8.433 45.148 35.242 73.16 79.338 84.998 3.893 1.052 7.823 1.894 11.737 2.838 203.532 0 407.047 0 610.579 0 25.424-5.612 45.38-20.776 63.487-38.124 30.071-28.829 59.594-58.25 88.509-88.258 18.188-18.861 34.527-39.428 40.456-66.068 0-203.536 0-407.071 0-610.603-0.565-1.62-1.344-3.198-1.66-4.88-8.434-45.168-35.223-73.157-79.34-85.019C874.939-146.943 871.006-147.804 867.097-148.73zM511.989-114.452c101.755 0 203.491-0.024 305.228 0.04 25.886 0 39.532 13.606 39.532 39.22 0.021 111.658 0.021 223.32 0 334.962 0 25.717-13.752 39.597-39.216 39.597-203.789 0.02-407.553 0.02-611.321 0-25.063-0.023-39.091-13.924-39.091-38.862-0.041-111.935-0.041-223.89 0.02-335.824 0-4.059 0.108-8.222 1.032-12.134 4.186-17.705 17.476-26.958 38.609-26.979C308.518-114.477 410.253-114.452 511.989-114.452zM494.429 402.194c72.591 0 145.161 0 217.729 0 27.884 0.02 41.302 13.374 41.302 41.174 0.021 76.079 0.021 152.142 0 228.221 0 27.989-13.146 41.154-41.197 41.154-145.158 0.02-290.296 0.02-435.434 0-27.487 0-40.922-13.29-40.942-40.628-0.064-76.355-0.064-152.708 0-229.083 0.02-27.315 13.604-40.817 40.837-40.817C349.291 402.194 421.861 402.194 494.429 402.194zM581.782 677.518c34.13 0 67.269 0 101.189 0 0-79.969 0-159.54 0-239.617-33.668 0-67.06 0-101.189 0C581.782 517.556 581.782 597.147 581.782 677.518z"  horiz-adv-x="1024" />

    
    <glyph glyph-name="shezhi" unicode="&#58881;" d="M564.524772 712.026054l0-59.611679 0-27.76639 26.891464-6.950296c30.426987-7.860015 59.45409-20.080338 86.275969-36.362162l24.054859-14.601556 19.888979 19.906375 42.648332 42.629913 76.051093-76.051093-44.084031-44.084031-19.415189-19.397792 13.672394-23.810289c15.160281-26.4013 26.505677-54.990428 33.68417-84.963067l6.599302-27.486004 28.274974 0 64.006779 0 0-107.564831-67.052139 0-27.294646 0-7.265474-26.313296c-7.843642-28.378327-19.608593-55.603389-34.980699-80.917938l-14.600533-24.072255 19.904329-19.887956 48.548716-48.547693-76.051093-76.051093-50.000787 49.983391-19.416212 19.416212-23.792892-13.673417c-24.685215-14.198374-51.487651-25.052582-79.640852-32.318056l-26.907836-6.931876 0-27.783787 0-71.447239L456.959941-112.631852l0 71.447239 0 27.783787-26.907836 6.931876c-28.152177 7.265474-54.955636 18.119683-79.640852 32.318056l-23.810289 13.673417-19.398816-19.416212-50.000787-49.999764-76.051093 76.06849 48.548716 48.547693 19.905352 19.887956-14.600533 24.072255c-15.371082 25.314549-27.137057 52.53961-34.980699 80.917938l-7.264451 26.313296-27.294646 0-67.052139 0L98.411869 353.477982l64.006779 0 28.274974 0 6.599302 27.486004c7.178493 29.972639 18.523889 58.561767 33.68417 84.963067l13.672394 23.810289-19.415189 19.397792-44.084031 44.084031 76.051093 76.051093 42.648332-42.629913 19.888979-19.906375 24.054859 14.601556c26.820855 16.281825 55.847959 28.502148 86.274946 36.362162l26.891464 6.950296 0 27.76639L456.959941 712.026054 564.524772 712.026054M510.742868 138.313527c88.971357 0 161.346735 72.392774 161.346735 161.381527 0 88.972381-72.375377 161.364131-161.346735 161.364131-88.972381 0-161.347758-72.392774-161.347758-161.364131C349.39511 210.706301 421.770488 138.313527 510.742868 138.313527M600.379375 747.88168 421.105339 747.88168l0-95.467305c-34.243919-8.841366-66.422805-22.532179-95.90528-40.423665l-67.998697 67.997674L130.449539 553.218142l69.434395-69.434395c-16.754592-29.166273-29.41289-60.872393-37.46631-94.451162L62.556243 389.332585l0-179.274036 102.906741 0c8.859785-32.05609 22.024619-62.203714 38.883589-89.9875l-73.897034-73.898057L257.201361-80.613624l75.352175 75.367525c27.450189-15.773242 57.160861-27.854395 88.551802-35.941584l0-107.301841 179.274036 0L600.379375-41.187683c31.390941 8.087189 61.101613 20.168342 88.551802 35.941584l75.352175-75.351152 126.750799 126.770242-73.897034 73.898057c16.85897 27.783787 30.023804 57.931411 38.883589 89.9875l102.906741 0L958.927447 389.332585l-99.861382 0c-8.05342 33.57877-20.711717 65.284889-37.46631 94.451162l69.434395 69.434395L764.283352 679.987361l-67.997674-67.997674c-29.484521 17.892509-61.662385 31.583323-95.906304 40.423665L600.379375 747.88168 600.379375 747.88168zM510.742868 174.16813c-69.328995 0-125.492132 56.19793-125.492132 125.526925 0 69.328995 56.163137 125.509529 125.492132 125.509529 69.327972 0 125.491109-56.17951 125.491109-125.509529C636.233977 230.36606 580.07084 174.16813 510.742868 174.16813L510.742868 174.16813z"  horiz-adv-x="1024" />

    
    <glyph glyph-name="delete" unicode="&#58926;" d="M480 516h64v-549.344h-64v549.344zM329.312 516h64v-549.344h-64v549.344zM630.656 516h64v-549.344h-64v549.344zM896 641.344h-172v40.224c0 31.296-28.096 55.776-64 55.776h-296c-35.904 0-64-24.512-64-55.776v-40.224h-177.344v-64h67.328v-674.912c0-34.432 28.704-62.432 64-62.432h516c35.296 0 64 28 64 62.432v674.912h61.984l-0 64zM364 673.344h296v-32h-296v32zM770.624-95.872c0 0-0.16-0.128-0.608-0.128l-516-1.568v674.912h516.032l0.576-673.216z"  horiz-adv-x="1024" />

    
    <glyph glyph-name="iconkefuzuixiaohua" unicode="&#58897;" d="M149.997246 661.80014 447.744557 661.80014 447.744557 747.753767 149.997246 747.753767 64.044642 747.753767 64.044642 661.80014 64.044642 364.053851 149.997246 364.053851ZM873.503381 364.053851 959.457008 364.053851 959.457008 661.80014 959.457008 747.753767 873.503381 747.753767 575.757093 747.753767 575.757093 661.80014 873.503381 661.80014ZM149.997246 236.368774 64.044642 236.368774 64.044642-61.377514 64.044642-147.331141 149.997246-147.331141 447.744557-147.331141 447.744557-61.377514 149.997246-61.377514ZM873.5218 236.368774 873.5218-61.377514 575.757093-61.377514 575.757093-147.331141 873.5218-147.331141 959.457008-147.331141 959.475428-147.331141 959.475428 236.368774ZM255.894088 342.976814l511.712451 0 0-85.953627-511.712451 0 0 85.953627Z"  horiz-adv-x="1024" />

    
    <glyph glyph-name="bianji" unicode="&#58927;" d="M901.959991-89.341403c0-31.908734-26.106588-58.014298-58.014298-58.014298L181.34265-147.355701c-31.907711 0-58.014298 26.106588-58.014298 58.014298L123.328351 689.964596c0 31.907711 26.106588 58.014298 58.014298 58.014298l662.60202 0c31.908734 0 58.014298-26.106588 58.014298-58.014298L901.958968-89.341403zM862.822622 651.223247c0 31.907711-26.106588 58.014298-58.014298 58.014298L220.29787 709.237545c-31.907711 0-58.014298-26.106588-58.014298-58.014298L162.283572-50.466c0-31.908734 26.106588-58.014298 58.014298-58.014298l584.509431 0c31.908734 0 58.014298 26.106588 58.014298 58.014298L862.821599 651.223247zM766.062881 574.332019c0 9.572006-7.831362 17.404392-17.404392 17.404392L296.147372 591.736411c-9.572006 0-17.404392-7.831362-17.404392-17.404392l0-2.90005c0-9.572006 7.831362-17.404392 17.404392-17.404392l452.511117 0c9.572006 0 17.404392 7.832386 17.404392 17.404392L766.062881 574.332019zM766.23275 437.891534c0 9.572006-7.831362 17.404392-17.404392 17.404392L296.317241 455.295925c-9.572006 0-17.404392-7.831362-17.404392-17.404392l0-2.901073c0-9.572006 7.831362-17.404392 17.404392-17.404392L748.828358 417.586069c9.572006 0 17.404392 7.831362 17.404392 17.404392L766.23275 437.891534zM766.289032 321.148669c0 9.572006-7.831362 17.404392-17.404392 17.404392L296.374546 338.553061c-9.572006 0-17.404392-7.831362-17.404392-17.404392l0-2.901073c0-9.572006 7.831362-17.404392 17.404392-17.404392l452.511117 0c9.572006 0 17.404392 7.831362 17.404392 17.404392L766.290055 321.148669zM432.802752 204.981926c0 9.572006-7.831362 17.404392-17.404392 17.404392L296.469714 222.386318c-9.572006 0-17.404392-7.831362-17.404392-17.404392l0-2.90005c0-9.572006 7.831362-17.404392 17.404392-17.404392l118.92967 0c9.572006 0 17.404392 7.831362 17.404392 17.404392L432.803775 204.981926zM746.468614 226.745602l-15.632025 15.632025c-12.674671 12.674671-32.133861 13.766538-43.462884 2.438539L512.446673 69.890158l61.533448-61.533448 174.927031 174.927031C760.236176 194.612765 759.143285 214.070932 746.468614 226.745602zM493.153258 50.400269l0-61.570287 61.300135 0 0.135076 0.135076L493.153258 50.400269z"  horiz-adv-x="1024" />

    
    <glyph glyph-name="faxian" unicode="&#58922;" d="M511.603469 547.666706c-211.749682 0-383.409296-282.732339-383.409296-282.732339s171.659615-284.347117 383.409296-284.347117c211.752752 0 383.415436 284.347117 383.415436 284.347117S723.35622 547.666706 511.603469 547.666706zM511.603469 109.833893c-84.699054 0-153.361877 69.441559-153.361877 155.100474 0 85.658915 68.662823 155.098427 153.361877 155.098427 84.702124 0 153.36597-69.438489 153.36597-155.098427C664.969439 179.275451 596.306616 109.833893 511.603469 109.833893zM511.603469 368.335365c-56.463989 0-102.243639-46.294372-102.243639-103.399975 0-57.109696 45.778626-103.397928 102.243639-103.397928 56.468083 0 102.244662 46.288233 102.244662 103.397928C613.848131 322.040992 568.071551 368.335365 511.603469 368.335365zM537.165658 268.164944c-14.118556 0-22.364357 8.344039-22.364357 22.61916s8.246825 22.61916 22.364357 22.61916 22.363334-8.343015 22.363334-22.61916S551.284213 268.164944 537.165658 268.164944z"  horiz-adv-x="1024" />

    
    <glyph glyph-name="tianjia" unicode="&#58920;" d="M675.04 328.736l-127.04 0 0 127.264c0 20.064-16.288 36.32-36.32 36.32-20.064 0-36.32-16.192-36.32-36.32l0-127.232-127.072 0c-20.064 0-36.352-16.32-36.352-36.352 0-20.064 16.224-36.352 36.352-36.352l127.072 0 0-127.232c0-20 16.256-36.384 36.32-36.384 20.032 0 36.32 16.256 36.32 36.384l0 127.136 127.04 0c19.968 0 36.352 16.256 36.352 36.384C711.36 312.448 695.136 328.736 675.04 328.736L675.04 328.736zM511.328 746.56c-250.24 0-453.952-203.616-453.952-453.952 0-250.336 203.712-453.952 453.952-453.952 250.336 0 453.984 203.584 453.984 453.952C965.312 542.944 761.696 746.56 511.328 746.56L511.328 746.56zM511.328-104.576c-219.04 0-397.184 178.176-397.184 397.152 0 219.104 178.144 397.216 397.184 397.216s397.216-178.112 397.216-397.216C908.576 73.632 730.368-104.576 511.328-104.576L511.328-104.576zM511.328-104.576"  horiz-adv-x="1024" />

    
    <glyph glyph-name="icon01" unicode="&#58880;" d="M541.5-83.5 330.6-83.5c-53.2 0-103.3 20.8-141.1 58.7-37.8 37.8-58.7 88-58.7 141.1s20.8 103.3 58.7 141.1c37.8 37.8 88 58.7 141.1 58.7l9.4 0c0 0.5 0 0.9 0 1.4 0 75.8 29.5 147.1 83.1 200.7 53.6 53.6 124.9 83.1 200.7 83.1 44.7 0 87.4-10.1 127.1-30 37.8-19 71.5-46.7 97.5-80.3 8.1-10.5 6.2-25.6-4.3-33.7-10.5-8.1-25.6-6.2-33.7 4.3-21.6 27.9-49.6 51-81 66.7-32.9 16.5-68.5 24.9-105.6 24.9-63 0-122.2-24.5-166.8-69.1C412.5 439.7 388 380.5 388 317.5c0-7.6 0.4-15.4 1.1-23.1 0.7-6.7-1.6-13.4-6.1-18.4-4.5-5-11-7.9-17.8-7.9l-34.6 0c-40.4 0-78.4-15.8-107.2-44.6-28.8-28.8-44.6-66.8-44.6-107.2s15.8-78.4 44.6-107.2c28.8-28.8 66.8-44.6 107.2-44.6l210.9 0c13.3 0 24-10.7 24-24S554.8-83.5 541.5-83.5zM724.3 85.8c-52 0-94.3 42.3-94.3 94.3 0 52 42.3 94.3 94.3 94.3 52 0 94.3-42.3 94.3-94.3C818.6 128.1 776.3 85.8 724.3 85.8zM724.3 228.9c-26.9 0-48.8-21.9-48.8-48.8 0-26.9 21.9-48.8 48.8-48.8 26.9 0 48.8 21.9 48.8 48.8C773.1 207 751.2 228.9 724.3 228.9zM905.5 66.4m-54 0a54 54 0 1 0 108 0 54 54 0 1 0-108 0ZM725.4 390.6m-54 0a54 54 0 1 0 108 0 54 54 0 1 0-108 0ZM725.4-30.5m-54 0a54 54 0 1 0 108 0 54 54 0 1 0-108 0ZM543 297m-54 0a54 54 0 1 0 108 0 54 54 0 1 0-108 0ZM543 66.4m-54 0a54 54 0 1 0 108 0 54 54 0 1 0-108 0ZM905.5 297m-54 0a54 54 0 1 0 108 0 54 54 0 1 0-108 0ZM725.4-54.5c-4.1 0-8.3 1.1-12 3.2L531 54c-7.4 4.3-12 12.2-12 20.8L519 285.4c0 8.6 4.6 16.5 12 20.8l182.3 105.3c7.4 4.3 16.6 4.3 24 0l182.3-105.3c7.4-4.3 12-12.2 12-20.8l0-210.5c0-8.6-4.6-16.5-12-20.8L737.4-51.2C733.7-53.4 729.5-54.5 725.4-54.5zM567 88.7l158.3-91.4 158.3 91.4L883.6 271.5l-158.3 91.4L567 271.5 567 88.7z"  horiz-adv-x="1024" />

    
    <glyph glyph-name="jianshao" unicode="&#58923;" d="M480 684C674.112 684 832 526.048 832 332S674.112-20 480-20 128 137.952 128 332 285.888 684 480 684M480 748C250.304 748 64 561.76 64 332 64 102.304 250.304-84 480-84S896 102.304 896 332C896 561.76 709.696 748 480 748L480 748zM256 364l448 0 0-64-448 0 0 64Z"  horiz-adv-x="1024" />

    
    <glyph glyph-name="cdnshitu" unicode="&#58917;" d="M734.788597 425.85029c-104.972796 0-190.376908 85.404112-190.376908 190.375885 0 104.987123 85.404112 190.392258 190.376908 190.392258 104.987123 0 190.404538-85.404112 190.404538-190.392258C925.193135 511.254402 839.774697 425.85029 734.788597 425.85029zM734.788597 745.89749c-71.499427 0-129.654942-58.171887-129.654942-129.670292 0-71.498404 58.155515-129.654942 129.654942-129.654942 71.498404 0 129.683595 58.156538 129.683595 129.654942C864.472192 687.725602 806.287001 745.89749 734.788597 745.89749zM664.476205 648.129792c-2.90619 0-5.857405 0.829901-8.451486 2.579755-6.952342 4.670369-8.819876 14.098089-4.15053 21.065781C670.46357 699.467017 701.462584 716.010809 734.788597 716.010809c8.375761 0 15.179724-6.788613 15.179724-15.179724 0-8.390088-6.803963-15.179724-15.179724-15.179724-23.186072 0-44.75532-11.518335-57.698097-30.80561C674.155658 650.486466 669.367609 648.129792 664.476205 648.129792zM218.65751 145.016183c-117.528763 0-213.146495 95.616708-213.146495 213.146495 0 117.54309 95.617731 213.161844 213.146495 213.161844 117.54309 0 213.176171-95.617731 213.176171-213.161844C431.834704 240.632891 336.2006 145.016183 218.65751 145.016183zM218.65751 510.602555c-84.055394 0-152.425551-68.385507-152.425551-152.439878 0-84.055394 68.370157-152.425551 152.425551-152.425551s152.455227 68.370157 152.455227 152.425551C371.112738 442.217049 302.712905 510.602555 218.65751 510.602555zM122.030799 342.980907c-8.390088 0-15.179724 6.789637-15.179724 15.180747l-0.073678 3.603061c-0.118704 3.497661-0.13303 5.929036 0.934279 11.533684 1.571798 8.227382 9.502421 13.594623 17.759479 12.0525 8.242731-1.586125 13.638625-9.532097 12.0525-17.774829-0.474814-2.535753-0.474814-2.653433-0.401136-4.78805 0.044002-1.186012 0.089028-2.623757 0.089028-4.625344C137.211547 349.771567 130.407584 342.980907 122.030799 342.980907zM138.353556 396.750531c-2.905166 0-5.841032 0.829901-8.449439 2.564405-6.952342 4.669346-8.820899 14.113439-4.151553 21.065781 20.828374 31.057343 55.562457 49.602721 92.90597 49.602721 8.375761 0 15.179724-6.789637 15.179724-15.179724s-6.803963-15.179724-15.179724-15.179724c-27.202549 0-52.508911-13.519921-67.688635-36.142152C148.048359 399.107205 143.24496 396.750531 138.353556 396.750531zM719.60785-152.897927c-131.137713 0-237.815337 106.677625-237.815337 237.814314 0 131.137713 106.677625 237.829663 237.815337 237.829663 131.136689 0 237.845013-106.690928 237.845013-237.829663C957.45184-46.220303 850.744539-152.897927 719.60785-152.897927zM719.60785 262.025107c-97.648994 0-177.093371-79.444377-177.093371-177.107697 0-97.648994 79.444377-177.094394 177.093371-177.094394 97.66332 0 177.12407 79.4454 177.12407 177.094394C896.73192 182.58073 817.27117 262.025107 719.60785 262.025107zM613.301685 145.934089c-2.90619 0-5.842055 0.830925-8.436136 2.564405-6.966669 4.669346-8.835226 14.098089-4.164856 21.065781 23.230074 34.675754 61.995983 55.384401 103.726409 55.384401 8.376785 0 15.180747-6.79066 15.180747-15.180747s-6.803963-15.179724-15.180747-15.179724c-31.575136 0-60.928674-15.669888-78.495772-41.923832C622.996488 148.290763 618.193089 145.934089 613.301685 145.934089zM372.343775 405.48138 348.357478 461.251567 598.624405 568.848121 622.610702 513.077933ZM513.308297 133.941963 346.979084 215.461605 373.706819 269.985406 540.038078 188.465764Z"  horiz-adv-x="1024" />

    
    <glyph glyph-name="xiao64" unicode="&#58887;" d="M953.0624 317.3312 529.8176 317.3312 529.8176 740.576c0 10.5984-8.6016 19.2-19.2 19.2s-19.2-8.6016-19.2-19.2l0-423.2448L68.1728 317.3312c-10.5984 0-19.2-8.6016-19.2-19.2s8.6016-19.2 19.2-19.2l423.2448 0 0-423.2448c0-10.5984 8.6016-19.2 19.2-19.2s19.2 8.6016 19.2 19.2L529.8176 278.9312l423.2448 0c10.5984 0 19.2 8.6016 19.2 19.2S963.6608 317.3312 953.0624 317.3312z"  horiz-adv-x="1024" />

    
    <glyph glyph-name="tansuo" unicode="&#58892;" d="M512-120.977778C279.506489-120.977778 91.022222 67.483733 91.022222 300 91.022222 532.493511 279.506489 720.977778 512 720.977778S932.977778 532.493511 932.977778 300C932.977778 67.483733 744.493511-120.977778 512-120.977778zM512 675.466667C304.651378 675.466667 136.533333 507.348622 136.533333 300S304.651378-75.466667 512-75.466667C719.371378-75.466667 887.466667 92.651378 887.466667 300S719.371378 675.466667 512 675.466667zM663.711289 38.311111l-159.402667 137.284267C438.840889 179.645867 386.844444 233.508267 386.844444 300c0 21.868089 6.121244 42.120533 15.9744 60.0064l-38.7072 183.660089-7.600356 24.667022 163.134578-143.951644C585.136356 420.354133 637.155556 366.491733 637.155556 300c0-22.163911-6.235022-42.666667-16.338489-60.711822l37.751467-183.022933L663.711289 38.311111zM512 379.644444c-44.009244 0-79.644444-35.657956-79.644444-79.6672C432.355556 256.013511 467.990756 220.355556 512 220.355556s79.644444 35.657956 79.644444 79.621689C591.644444 343.986489 556.009244 379.644444 512 379.644444z"  horiz-adv-x="1024" />

    
    <glyph glyph-name="yonghu" unicode="&#58914;" d="M726.18515 463.915233c0 118.580722-96.65127 214.826763-216.044498 214.826763s-216.044498-96.246041-216.044498-214.826763c0-118.986975 96.65127-215.233016 216.044498-215.233016S726.18515 344.927235 726.18515 463.915233zM916.64597-108.27973c0-19.899212-16.243963-36.549427-36.549427-36.549427s-36.954657 16.650215-36.954657 36.549427l-0.406253 3.65525 0.406253 4.061502C820.399929 59.845385 682.326247 177.614625 514.201132 179.644865l-4.061502-0.406253-4.061502 0.406253c-166.094876-2.030239-302.9498-116.956735-328.128249-274.523377 0.812505-3.248997 1.623987-6.497994 1.623987-9.745968l0-3.65525c0-20.305465-16.650215-36.954657-36.954657-36.954657-20.710694 0-37.360909 16.650215-37.360909 36.954657l0 0.406253-0.812505 0 0.406253 3.248997c0 3.248997 0.406253 6.091742 1.218758 8.934486 19.086707 147.820674 118.580722 267.213901 254.217912 318.788533-79.189573 50.355875-130.357953 139.29244-130.357953 240.816694 0 156.754137 122.642225 284.269345 280.208866 284.269345 157.972894 0 280.208866-127.515209 280.208866-284.269345 0-101.525278-51.16838-190.46082-129.951701-240.816694C794.816251 171.929136 893.904013 53.754666 914.209478-92.440997c1.218758-4.061502 2.030239-8.121981 2.030239-12.183484L916.64597-108.27973z"  horiz-adv-x="1024" />

    
    <glyph glyph-name="shanchu" unicode="&#58899;" d="M511.996418-156.761931c-245.456365 0-444.437232 204.495464-444.437232 456.782398 0 252.239861 198.980867 456.741465 444.443371 456.741465 245.456365 0 444.437232-204.502627 444.437232-456.741465 0-79.80765-20.023032-154.829298-55.047734-220.085534l-0.207731 0.193405c-5.097088-16.902972-19.85828-29.483498-38.027082-29.483498-22.299889 0-40.399105 18.587334-40.399105 41.544185l0.373507 3.849678c9.017374 26.52819 18.643616 45.115524 18.643616 45.115524 22.248723 48.452525 35.066657 102.341876 35.066657 159.435199 0 206.748784-163.091472 374.346897-364.256074 374.346897-201.137996 0-364.233562-167.598112-364.233562-374.346897 0-206.707852 163.096589-374.255823 364.233562-374.255823 80.328513 0 154.266479 27.034726 214.475769 72.29556 7.343245 7.982812 17.60189 13.052271 29.1499 13.052271 22.324448 0 40.398082-18.545378 40.398082-41.502229l-0.352017-3.849678c0-19.432585-11.803837-21.500687-30.912034-39.532365C693.326277-125.025113 606.596983-156.761931 511.996418-156.761931L511.996418-156.761931zM511.999488 300M690.282964 478.304965c-10.351766 10.368138-27.208689 10.368138-37.57785 0L511.972882 337.582967 371.296933 478.25073c-10.367115 10.369162-27.223015 10.369162-37.578874 0-10.374278-10.367115-10.374278-27.209712 0-37.578874l140.674926-140.683113L333.718059 159.322004c-10.374278-10.382465-10.374278-27.221991 0-37.59013 5.151323-5.205559 11.960403-7.812943 18.762319-7.812943 6.80294 0 13.612019 2.607384 18.815531 7.760754l140.676973 140.718929 140.681066-140.66674c5.203512-5.205559 12.012591-7.812943 18.821671-7.812943 6.795776 0 13.605879 2.607384 18.808368 7.760754 10.370185 10.365068 10.370185 27.221991 0 37.59013L549.566082 299.989767l140.664693 140.683113C700.653149 451.095253 700.653149 467.883615 690.282964 478.304965L690.282964 478.304965z"  horiz-adv-x="1024" />

    
    <glyph glyph-name="wenhao01" unicode="&#58888;" d="M510.827291 747.958428c247.095701-0.027629 448.76684-201.816448 448.279746-448.541713-0.490164-247.641123-201.838961-448.843588-448.570365-448.240861-247.462045 0.603751-447.696462 200.955848-448.02392 448.288956C62.184271 546.346641 263.742846 747.986057 510.827291 747.958428zM916.774907 299.63468C916.739091 523.226061 735.657896 704.952962 511.049349 705.41345c-223.89121 0.458441-405.925103-181.25311-406.15944-405.79105-0.233314-223.61287 181.448562-405.16581 405.673369-405.804353C733.898833-106.818449 916.810722 75.915385 916.774907 299.63468zM535.794939 154.69973c-19.142989 0-37.775348 0-56.938803 0 0 11.373025-0.607844 22.537296 0.127913 33.612539 1.484817 22.364357 6.65763 43.814901 18.343787 63.300698 9.094122 15.164375 20.674878 28.250414 33.540907 40.276309 15.978926 14.935154 32.148188 29.677926 47.809889 44.939515 9.222035 8.985652 17.418718 19.008936 21.679765 31.483038 10.207479 29.883611 3.681856 56.56939-16.198937 80.3367-33.015951 39.469943-88.2356 40.821731-122.050754 21.066805-21.313422-12.450567-34.092469-31.502481-41.552371-54.414307-3.344165-10.271948-5.653767-20.880563-8.651031-32.155351-19.651572 2.333138-39.766702 4.721535-60.636009 7.198959 0.778736 5.205559 1.336438 10.100032 2.26253 14.923898 5.196349 27.060309 14.589276 52.297087 32.253588 73.943083 21.519106 26.369577 49.554626 41.723264 82.579787 48.061622 34.471093 6.615675 68.919672 5.901407 102.44216-4.986571 42.920532-13.939477 74.679863-41.176818 89.112574-84.563978 13.856589-41.654702 7.048533-81.003895-20.22667-116.155487-17.302061-22.298865-38.820144-40.415478-59.041698-59.83169-8.895601-8.541537-17.895579-17.136286-25.622564-26.696012-11.477402-14.198374-15.858176-31.370475-17.241686-49.325405C537.00551 175.577223 536.474414 165.419885 535.794939 154.69973zM475.157907 34.25966c0 22.494317 0 44.771693 0 67.411319 22.538319 0 44.810578 0 67.458391 0 0-22.425755 0-44.709271 0-67.411319C520.208962 34.25966 497.807766 34.25966 475.157907 34.25966z"  horiz-adv-x="1024" />

    
    <glyph glyph-name="shousuo" unicode="&#58913;" d="M396.798235 130.217129l560.545646 0 0-69.346391-560.545646 0 0 69.346391ZM396.798235 130.217129l560.545646 0 0-69.346391-560.545646 0 0 69.346391ZM396.798235 336.349883l560.545646 0 0-69.346391-560.545646 0 0 69.346391ZM396.798235 336.349883l560.545646 0 0-69.346391-560.545646 0 0 69.346391ZM396.798235 542.482637l560.545646 0 0-69.345368-560.545646 0 0 69.345368ZM396.798235 542.482637l560.545646 0 0-69.345368-560.545646 0 0 69.345368ZM277.760095 427.417995 65.389266 304.805446 277.760095 182.192897Z"  horiz-adv-x="1024" />

    
    <glyph glyph-name="jinggao" unicode="&#58928;" d="M942.049 491.131c-23.246 54.956-56.521 104.31-98.902 146.691-42.381 42.381-91.735 75.657-146.691 98.903-56.902 24.07-117.341 36.274-179.635 36.274-62.29 0-122.727-12.204-179.629-36.274-54.956-23.246-104.311-56.522-146.691-98.903-42.383-42.382-75.658-91.736-98.906-146.691-24.07-56.903-36.275-117.341-36.275-179.635 0-62.293 12.204-122.73 36.273-179.635 23.246-54.955 56.521-104.31 98.904-146.691 42.381-42.381 91.733-75.656 146.689-98.902 56.902-24.069 117.341-36.272 179.635-36.272s122.73 12.203 179.635 36.272c54.956 23.246 104.311 56.521 146.691 98.902 42.381 42.383 75.656 91.736 98.902 146.691 24.068 56.903 36.273 117.342 36.273 179.635C978.322 373.79 966.118 434.228 942.049 491.131zM882.874 156.865c-20.008-47.306-48.651-89.791-85.14-126.279s-78.976-65.135-126.279-85.143c-48.971-20.713-100.998-31.216-154.637-31.216-53.635 0-105.658 10.503-154.629 31.216-47.306 20.008-89.791 48.653-126.279 85.143s-65.135 78.975-85.145 126.279c-20.713 48.971-31.216 100.996-31.216 154.631s10.503 105.66 31.216 154.63c20.01 47.305 48.655 89.792 85.145 126.28 36.488 36.488 78.975 65.135 126.279 85.143 48.971 20.713 100.994 31.215 154.629 31.215s105.66-10.502 154.631-31.215c47.305-20.008 89.791-48.655 126.279-85.143 36.488-36.488 65.135-78.975 85.145-126.28 20.713-48.97 31.215-100.995 31.215-154.63S903.586 205.836 882.874 156.865zM512.693 553.701c-19.33 0-35-15.67-35-35l0-267.026c0-19.33 15.67-35 35-35s35 15.67 35 35L547.693 518.701C547.693 538.031 532.023 553.701 512.693 553.701zM512.402 180.416c-19.33 0-35-15.67-35-35l0-35.249c0-19.33 15.67-35 35-35s35 15.67 35 35l0 35.249C547.402 164.746 531.732 180.416 512.402 180.416z"  horiz-adv-x="1024" />

    
    <glyph glyph-name="zanting" unicode="&#58934;" d="M410.393 502.513c-21.593 0-39.156-17.565-39.156-39.156l0-309.72c0-21.592 17.563-39.156 39.156-39.156 21.591 0 39.155 17.564 39.155 39.156l0 309.72C449.548 484.947 431.982 502.513 410.393 502.513zM945.896 488.131c-23.246 54.956-56.522 104.31-98.903 146.691-42.382 42.381-91.735 75.657-146.691 98.903-56.903 24.07-117.341 36.274-179.635 36.274-62.29 0-122.728-12.204-179.629-36.274-54.956-23.246-104.31-56.522-146.692-98.903-42.382-42.382-75.657-91.736-98.905-146.691C71.37 431.228 59.165 370.79 59.165 308.496c0-62.293 12.204-122.73 36.273-179.635 23.246-54.955 56.521-104.31 98.903-146.691 42.382-42.381 91.734-75.656 146.69-98.902 56.903-24.069 117.341-36.272 179.635-36.272s122.731 12.203 179.636 36.272c54.955 23.246 104.311 56.521 146.69 98.902 42.381 42.383 75.657 91.736 98.903 146.691 24.068 56.903 36.272 117.342 36.272 179.635C982.169 370.79 969.965 431.228 945.896 488.131zM675.302-57.557c-48.971-20.713-100.998-31.216-154.636-31.216-53.635 0-105.659 10.503-154.63 31.216-47.305 20.008-89.791 48.653-126.279 85.143-36.487 36.489-65.135 78.975-85.144 126.279-20.713 48.971-31.217 100.996-31.217 154.631s10.504 105.66 31.217 154.63c20.009 47.305 48.654 89.792 85.144 126.28 36.489 36.488 78.976 65.135 126.279 85.143 48.971 20.713 100.995 31.215 154.63 31.215s105.66-10.502 154.63-31.215c47.305-20.008 89.792-48.655 126.28-85.143 36.488-36.488 65.135-78.975 85.144-126.28 20.713-48.97 31.216-100.995 31.216-154.63s-10.502-105.66-31.215-154.631c-20.008-47.306-48.652-89.791-85.14-126.279S722.605-37.549 675.302-57.557zM630.955 502.513c-21.591 0-39.156-17.565-39.156-39.156l0-309.72c0-21.592 17.565-39.156 39.156-39.156s39.156 17.564 39.156 39.156l0 309.72C670.111 484.947 652.546 502.513 630.955 502.513z"  horiz-adv-x="1024" />

    
    <glyph glyph-name="biaoqian" unicode="&#58906;" d="M588.409251-147.559339c-0.01535 0-0.026606 0-0.041956 0-32.340569 0.00614-62.730717 12.607132-85.567841 35.484166L99.492992 291.21594c-25.00551 24.99937-37.799908 59.565631-35.099403 94.833879l3.27458 42.529629c1.325182 17.214057 16.350386 30.101575 33.564443 28.766161 17.21201-1.325182 30.091342-16.353456 28.765137-33.565467l-3.273557-42.515303c-1.304715-17.043165 4.881171-33.756825 16.97051-45.844118l403.327952-403.311579c11.047614-11.066033 25.728988-17.152658 41.35999-17.154705 0.007163 0 0.014326 0 0.020466 0 15.442714 0 29.971615 5.950526 40.97625 16.769942l250.520707 250.516614c22.803355 22.806425 22.801309 59.917648-0.005117 82.728166l-403.320789 403.325905c-12.088316 12.091386-28.795836 18.280342-45.848211 16.953114l-232.282321-17.862833c-27.097148-2.083451-51.749618-26.731828-53.832046-53.82079-1.325182-17.21201-16.359596-30.093389-33.562397-28.768207-17.21201 1.325182-30.092365 16.35141-28.76923 33.56342 4.458545 57.982576 53.378721 106.897635 111.369483 111.358227l232.275157 17.862833c35.286668 2.712785 69.843718-10.06524 94.855368-35.080983l403.320789-403.327952c47.178509-47.183626 47.179532-123.95308 0.005117-171.132612L673.942299-112.124292C651.088802-134.974719 620.709911-147.557292 588.409251-147.559339zM353.230973 340.662095c-68.876694 0-124.912941 56.035224-124.912941 124.913964 0 68.87567 56.035224 124.911918 124.912941 124.911918s124.912941-56.035224 124.912941-124.911918C478.142891 396.697319 422.107667 340.662095 353.230973 340.662095zM353.230973 527.972155c-34.406624 0-62.398142-27.991518-62.398142-62.397119 0-34.407648 27.991518-62.399165 62.398142-62.399165s62.398142 27.991518 62.398142 62.399165C415.628092 499.98166 387.636574 527.972155 353.230973 527.972155z"  horiz-adv-x="1024" />

    
    <glyph glyph-name="lajitong" unicode="&#58903;" d="M847.434144 551.734348 655.751496 551.734348l0 50.050929c0 27.764344-24.243147 50.297546-54.155411 50.297546L439.102225 652.082824c-29.942963 0-54.187133-22.533202-54.187133-50.297546l0-50.050929L191.698508 551.734348c-14.018272 0-25.379017-11.363815-25.379017-25.377994 0-14.019295 11.360745-25.379017 25.379017-25.379017l57.8168 0 0-502.763638c0-27.79709 24.27487-50.297546 54.151317-50.297546l433.330266 0c29.943986 0 54.187133 22.500457 54.187133 50.297546L791.184025 500.977337l56.250118 0c14.014178 0 25.374924 11.359722 25.374924 25.379017C872.809067 540.370533 861.448322 551.734348 847.434144 551.734348L847.434144 551.734348zM439.102225 601.785278l162.493861 0 0-50.050929L439.102225 551.734348 439.102225 601.785278 439.102225 601.785278zM736.996892-1.785278 303.666626-1.785278 303.666626 500.977337l433.330266 0L736.996892-1.785278 736.996892-1.785278zM410.765853 82.178019c14.014178 0 25.374924 11.360745 25.374924 25.374924L436.140777 401.025904c0 14.014178-11.360745 25.374924-25.374924 25.374924-14.018272 0-25.379017-11.360745-25.379017-25.374924l0-293.472961C385.386836 93.537741 396.747581 82.178019 410.765853 82.178019L410.765853 82.178019zM519.563768 82.178019c14.018272 0 25.379017 11.360745 25.379017 25.374924L544.942785 401.025904c0 14.014178-11.360745 25.374924-25.379017 25.374924-14.014178 0-25.379017-11.360745-25.379017-25.374924l0-293.472961C494.184751 93.537741 505.549589 82.178019 519.563768 82.178019L519.563768 82.178019zM628.102786 82.178019c14.018272 0 25.379017 11.360745 25.379017 25.374924L653.481803 401.025904c0 14.014178-11.360745 25.374924-25.379017 25.374924-14.014178 0-25.374924-11.360745-25.374924-25.374924l0-293.472961C602.727863 93.537741 614.088608 82.178019 628.102786 82.178019L628.102786 82.178019zM628.102786 82.178019"  horiz-adv-x="1024" />

    
    <glyph glyph-name="yonghu1" unicode="&#58915;" d="M656.784026 630.925501C619.192072 736.401558 523.003632 811.682622 410.695885 811.682622 265.79224 811.682622 149.511537 686.361306 149.511537 534.45668 149.511537 439.516288 194.234884 355.968745 262.214372 306.599741 108.366058 242.040275 1.030024 84.439226 1.030024-99.745133L74.376314-99.745133C74.376314 82.540418 204.968489 234.445044 371.33934 255.33193 373.128274 255.33193 417.851622 259.129546 455.419233 255.33193L458.997102 255.33193C480.846671 252.018852 502.019492 246.482421 522.303623 238.942999 505.916786 270.567129 495.171659 306.040103 491.534829 343.805257 466.90534 332.093274 439.551105 325.587819 410.695885 325.587819 301.570918 325.587819 213.913157 418.629403 213.913157 534.456681 213.913157 650.283957 301.570918 743.325542 410.695885 743.325542 499.203398 743.325542 573.589193 682.120231 598.537875 597.194027 616.378196 610.911517 635.922924 622.301034 656.784026 630.925501ZM855.754211 192.514454C923.7337 241.883458 968.457048 325.431002 968.457048 420.371393 968.457048 574.174827 850.387411 699.496143 705.483764 699.496143 560.580119 699.496143 444.299416 574.174827 444.299416 422.270201 444.299416 327.329809 489.022762 243.782265 557.002251 194.413262 403.153937 129.853796 295.817903-27.747253 295.817903-211.931612L295.817903-211.931612 369.164193-211.931612 369.164193-211.931612C369.164193-29.646061 499.756367 122.258565 666.127219 143.145451 667.916153 143.145451 712.639501 146.943066 750.207112 143.145451L753.784981 143.145451 753.784981 143.145451C916.577965 118.460949 1041.803338-29.646061 1041.803338-210.032804L1041.803338-210.032804 1116.938561-210.032804 1116.938561-210.032804C1115.149626-27.747253 1007.813593 129.853796 855.754211 192.514454L855.754211 192.514454ZM705.483764 213.40134C596.358797 213.40134 508.701036 306.442923 508.701036 422.270202 508.701036 538.097478 596.358797 631.139062 705.483764 631.139062 814.608732 631.139062 902.266493 538.09748 902.266493 422.270202 902.266493 306.442923 814.608732 213.40134 705.483764 213.40134L705.483764 213.40134Z"  horiz-adv-x="1118" />

    
    <glyph glyph-name="jian" unicode="&#58900;" d="M512.108 768.001c-85.774 0-166.315-22.488-236.01-61.847C130.374 623.836 32 467.624 32 288.492l0 0.001c0-264.881 214.939-479.555 480.108-479.532 265.17 0 480.107 214.675 480.084 479.556C992.192 553.327 777.229 768.001 512.108 768.001zM512.108-131.115c-232.027 0-420.087 187.868-420.11 419.582 0 231.715 188.083 419.558 420.11 419.558 232.002 0 420.062-187.844 420.062-419.558C932.17 56.728 744.086-131.115 512.108-131.115zM218.432 342.352l585.137 0 0-62.693-585.137 0 0 62.693Z"  horiz-adv-x="1025" />

    
    <glyph glyph-name="shouyewodebiaoqian" unicode="&#58893;" d="M1004.162 151.849l-356.011-356.011c-4.673-4.69-9.994-8.247-15.514-11.308h-66.038c-5.523 3.058-10.841 6.615-15.537 11.308l-534.013 533.999 3.932 3.932h-12.448v389.041c0 37.926 30.73 68.656 68.656 68.656h389.041v-12.448l3.932 3.932 533.996-534.016c4.69-4.697 8.267-10.011 11.308-15.537v-66.017c-3.041-5.536-6.615-10.858-11.305-15.531zM890.897 232.755l-467.173 467.173h-323.652v-323.652l467.173-467.173c17.879-17.855 46.865-17.855 64.724 0l258.929 258.929c17.855 17.879 17.855 46.845 0 64.724zM306.036 402.425c-50.555 0-91.539 40.987-91.539 91.539 0 50.555 40.987 91.539 91.539 91.539 50.551 0 91.539-40.987 91.539-91.539 0-50.551-40.987-91.539-91.539-91.539z"  horiz-adv-x="1024" />

    
    <glyph glyph-name="yuan" unicode="&#58911;" d="M511.706311 299.690962m-383.76336 0a375.023 375.023 0 1 0 767.526721 0 375.023 375.023 0 1 0-767.526721 0Z"  horiz-adv-x="1024" />

    
    <glyph glyph-name="mp-relation" unicode="&#58882;" d="M173.158 118.093c-69.581 0-126.182 56.627-126.182 126.208 0 69.555 56.602 126.157 126.182 126.157s126.182-56.602 126.182-126.157c0-69.581-56.627-126.208-126.182-126.208zM173.158 344.858c-55.475 0-100.582-45.107-100.582-100.557 0-55.475 45.107-100.608 100.582-100.608s100.582 45.133 100.582 100.608c-0 55.45-45.133 100.557-100.582 100.557zM827.392 540.518c-69.581 0-126.182 56.602-126.182 126.182 0 69.555 56.602 126.157 126.182 126.157s126.182-56.576 126.182-126.157c-0-69.555-56.602-126.182-126.182-126.182zM827.392 767.258c-55.45 0-100.582-45.107-100.582-100.557 0-55.475 45.133-100.582 100.582-100.582s100.582 45.133 100.582 100.582c-0 55.45-45.133 100.557-100.582 100.557zM827.392-216.858c-69.581 0-126.182 56.602-126.182 126.182s56.602 126.182 126.182 126.182 126.182-56.602 126.182-126.182-56.602-126.182-126.182-126.182zM827.392 9.907c-55.45 0-100.582-45.133-100.582-100.582s45.133-100.582 100.582-100.582 100.582 45.133 100.582 100.582-45.133 100.582-100.582 100.582zM280.054 211.165l466.812-237.544-17.136-33.675-466.812 237.544 17.136 33.675zM259.728 311.014l467.014 303.637 20.583-31.658-467.014-303.637-20.583 31.658z"  horiz-adv-x="1024" />

    
    <glyph glyph-name="yonghuyulashen" unicode="&#58907;" d="M0-0.167114l1253.414922 0 0-211.832841-1253.414922 0 0 211.832841ZM0 405.916443l1253.414922 0 0-211.832841-1253.414922 0 0 211.832841ZM0 812l1253.414922 0 0-211.832841-1253.414922 0 0 211.832841ZM1487.172463 667.00042 2122.670987 300.000022 1487.172463-66.788543Z"  horiz-adv-x="2123" />

    
    <glyph glyph-name="shensuo" unicode="&#58908;" d="M0.021487-170.629777l170.659845 0L170.681332 767.997833 0.021487 767.997833 0.021487-170.629777zM426.669564-170.629777l170.659845 0L597.329409 767.997833 426.669564 767.997833 426.669564-170.629777zM853.318664 767.997833l0-938.62761 170.659845 0L1023.978509 767.997833 853.318664 767.997833z"  horiz-adv-x="1024" />

    
    <glyph glyph-name="iconwenjianjia" unicode="&#58939;" d="M0 492l1024 0-64-640L64-148 0 492zM928 620 960 556 64 556l64 128 352 0L512 620 928 620z"  horiz-adv-x="1024" />

    
    <glyph glyph-name="xuexi" unicode="&#58902;" d="M251.79063-210.927575l125.662001 225.291093-308.467467 1.390673 0.937348 711.494567-24.610514 0.937348c-20.834514 0-37.788651 16.945951-37.788651 37.788651S24.478508 803.762385 45.313022 803.762385l933.712671 0c20.834514 0 37.788651-16.945951 37.788651-37.788651s-16.954137-37.788651-37.788651-37.788651l-23.655769 0-0.937348-609.869005c0-10.429537 0.089028-19.742646 0.161682-28.070312 0.178055-17.770735 0.290619-29.606295-0.178055-38.677904-1.14815-22.621207-5.578042-33.730219-27.674293-35.782971l-278.998295-0.032746 123.260302-226.681766-95.376231 0.436952L551.987736 15.26812l-78.81095 0.485047L347.959923-210.976694 251.79063-210.927575zM143.171794 118.333474c0-6.063089-0.145309-11.04352-0.275269-15.134699-0.113587-3.865028-0.242524-8.521071 0.056282-11.011798l737.502917-0.824785c1.260713 2.425236 1.139963 6.887874 1.01819 11.189853-0.145309 4.754281-0.290619 9.733689-0.290619 15.765055 0.016373 15.506159 0.436952 521.097192 0.452301 608.930633l-738.918149 0.937348L143.171794 118.333474zM258.638595 177.676024c-20.187785 0-36.607756 16.962324-36.607756 37.820374 0 20.842701 16.419971 37.804001 36.607756 37.804001l280.784988 0c20.204158 0 36.640502-16.962324 36.640502-37.804001 0-20.859074-16.436344-37.820374-36.640502-37.820374L258.638595 177.676024zM258.638595 371.970148c-20.187785 0-36.607756 16.962324-36.607756 37.804001 0 20.842701 16.419971 37.804001 36.607756 37.804001l374.407272 0c20.195971 0 36.624129-16.962324 36.624129-37.804001 0-20.842701-16.428158-37.804001-36.624129-37.804001L258.638595 371.970148zM258.638595 566.246877c-20.187785 0-36.607756 16.962324-36.607756 37.820374 0 20.842701 16.419971 37.788651 36.607756 37.788651l374.407272 0c20.195971 0 36.624129-16.945951 36.624129-37.788651 0-20.859074-16.428158-37.820374-36.624129-37.820374L258.638595 566.246877z"  horiz-adv-x="1024" />

    
    <glyph glyph-name="chenggong" unicode="&#58929;" d="M830.694788 618.121374c-175.723313 175.758222-461.667556 175.758222-637.389576 0-175.756929-175.72202-175.756929-461.666263 0-637.388283 175.72202-175.758222 461.666263-175.758222 637.389576 0C1006.451717 156.455111 1006.451717 442.399354 830.694788 618.121374L830.694788 618.121374zM784.966465 26.460121c-150.524121-150.520242-395.443717-150.490505-545.934222 0-150.520242 150.525414-150.520242 395.408808 0 545.934222 150.490505 150.489212 395.410101 150.520242 545.934222 0C935.45697 421.903838 935.45697 176.949333 784.966465 26.460121L784.966465 26.460121zM777.219232 461.162343c-12.029414 11.30796-32.883071 10.656323-44.227232-1.409293l-279.762747-297.839192-149.413495 147.187071c-11.893657 11.737212-32.521051 11.636364-44.288-0.262465-5.884121-5.979798-9.055677-13.858909-9.020768-22.257778 0.065939-8.332929 3.430141-16.175838 9.378909-21.999192l171.737212-169.217293 1.014949-0.98004c0.126707-0.131879 0.263758-0.262465 0.389172-0.358141l0-0.065939c1.99499-1.762263 4.085657-2.843152 6.016-3.859394l3.595636-2.090667c3.727515-1.43903 7.550707-2.156606 11.443717-2.156606 4.248566 0 8.29802 0.818424 12.126384 2.450101 1.666586 0.686545 2.808242 1.605818 4.445091 2.681535 1.470061 0.848162 3.465051 2.029899 5.357899 3.793455l302.550626 322.090667c5.752242 6.050909 8.758303 13.994667 8.530747 22.327596C786.860606 447.595636 783.336081 455.373899 777.219232 461.162343L777.219232 461.162343zM777.219232 461.162343"  horiz-adv-x="1024" />

    
    <glyph glyph-name="tuichu2" unicode="&#59528;" d="M575.824631-49.888855 114.995057-49.888855 114.995057 649.889879l460.829574 0 0-187.744965 51.203172 0L627.027803 622.580906c0 43.352367-35.159778 78.512145-78.528518 78.512145L142.320403 701.093051c-43.36874 0-78.528518-35.159778-78.528518-78.512145L63.791885-22.580906c0-43.352367 35.159778-78.512145 78.528518-78.512145l406.178883 0c43.369763 0 78.528518 35.159778 78.528518 78.512145L627.027803 137.85611l-51.203172 0L575.824631-49.888855zM755.036245 505.171869 718.835765 468.953993 862.187661 325.602098 507.553735 325.602098 507.553735 274.398926 862.187661 274.398926 718.835765 131.046007 755.036245 94.828131 960.208115 300Z"  horiz-adv-x="1024" />

    
    <glyph glyph-name="yidong" unicode="&#58898;" d="M1020.16 316.64l-12.8 12.8-15.36 15.36L883.2 452.32l-15.36 15.36-1.28 1.28c0 0 0 0 0 0-8.96 7.68-21.76 7.68-30.72 0-5.12-5.12-7.68-12.8-6.4-19.2 0 0 0 0 0 0 0-6.4 0-24.32 0-48.64 0-20.48 0-46.08 0-72.96L538.88 328.16 538.88 609.76c28.16 0 56.32 0 79.36 0 24.32 0 42.24 0 48.64 0 0 0 0 0 0 0 6.4-1.28 14.08 1.28 19.2 6.4 8.96 8.96 8.96 21.76 0 30.72 0 0 0 0 0 0l-1.28 1.28-15.36 15.36L563.2 771.04 547.84 786.4l-12.8 12.8c-3.84 3.84-10.24 6.4-15.36 6.4-5.12 0-11.52-2.56-15.36-6.4l-12.8-12.8-15.36-15.36-107.52-107.52-15.36-15.36-1.28-1.28c0 0 0 0 0 0-7.68-8.96-7.68-21.76 0-30.72 5.12-5.12 12.8-7.68 19.2-6.4 0 0 0 0 0 0 6.4 0 24.32 0 48.64 0 19.2 0 42.24 0 66.56 0L486.4 325.6 209.92 325.6c0 26.88 0 51.2 0 71.68 0 24.32 0 42.24 0 48.64 0 0 0 0 0 0 1.28 6.4-1.28 14.08-6.4 19.2-8.96 8.96-21.76 8.96-30.72 0 0 0 0 0 0 0L172.8 466.4l-15.36-15.36-107.52-107.52-15.36-15.36-12.8-12.8c-3.84-3.84-6.4-10.24-6.4-15.36 0-5.12 2.56-11.52 6.4-15.36l12.8-12.8 15.36-15.36 107.52-107.52 15.36-15.36 1.28-1.28c0 0 0 0 0 0 8.96-7.68 21.76-7.68 30.72 0 5.12 5.12 7.68 12.8 6.4 19.2 0 0 0 0 0 0 0 6.4 0 24.32 0 48.64 0 20.48 0 46.08 0 72.96l277.76 0 0-284.16c-24.32 0-46.08 0-65.28 0-24.32 0-42.24 0-48.64 0 0 0 0 0 0 0-6.4 1.28-14.08-1.28-19.2-6.4-8.96-8.96-8.96-21.76 0-30.72 0 0 0 0 0 0l1.28-1.28 15.36-15.36 107.52-107.52 15.36-15.36 12.8-12.8c3.84-3.84 10.24-6.4 15.36-6.4 5.12 0 11.52 2.56 15.36 6.4l12.8 12.8 15.36 15.36 107.52 107.52 15.36 15.36 1.28 1.28c0 0 0 0 0 0 7.68 8.96 7.68 21.76 0 30.72-5.12 5.12-12.8 7.68-19.2 6.4 0 0 0 0 0 0-6.4 0-24.32 0-48.64 0-23.04 0-51.2 0-80.64 0L542.72 274.4l291.84 0c0-26.88 0-51.2 0-71.68 0-24.32 0-42.24 0-48.64 0 0 0 0 0 0C829.44 146.4 832 138.72 837.12 133.6c8.96-8.96 21.76-8.96 30.72 0 0 0 0 0 0 0l1.28 1.28 15.36 15.36 107.52 107.52 15.36 15.36 12.8 12.8c3.84 3.84 6.4 10.24 6.4 15.36C1026.56 306.4 1024 311.52 1020.16 316.64z"  horiz-adv-x="1027" />

    
    <glyph glyph-name="qiabaocardbag" unicode="&#58891;" d="M830.053021 387.124248l-10.135487 0 0 111.996097c0 42.554595-34.617538 77.172133-77.172133 77.172133L591.674009 576.292479 395.919776 693.499785c-32.834023 19.658922-75.553758 8.944412-95.217841-23.897868l-55.869033-93.309439-42.90139 0c-42.544274 0-77.172133-34.617538-77.172133-77.172133l0-425.164062c0-42.554595 34.62786-77.172133 77.172133-77.172133l540.813889 0c42.554595 0 77.172133 34.617538 77.172133 77.172133l0 111.996097 10.135487 0c37.486851 0 67.986203 30.499352 67.986203 67.986203l0 65.189139C898.039225 356.624896 867.539873 387.124248 830.053021 387.124248zM337.159756 647.772432c7.630515 12.744704 24.199249 16.903143 36.935696 9.276757l134.87732-80.757742L294.360547 576.291447 337.159756 647.772432zM772.677083 73.956284c0-16.514031-13.427972-29.942003-29.931682-29.942003l-540.813889 0c-16.50371 0-29.931682 13.427972-29.931682 29.942003l0 425.164062c0 16.514031 13.427972 29.942003 29.931682 29.942003l540.813889 0c16.50371 0 29.931682-13.427972 29.931682-29.942003l0-111.996097-62.846211 0c-37.497173 0-67.996525-30.499352-67.996525-67.996525l0-65.189139c0-37.486851 30.499352-67.986203 67.996525-67.986203l62.846211 0L772.677083 73.956284zM862.585664 253.938584c0-17.938367-14.594275-32.522321-32.532642-32.522321l-10.135487 0-47.240451 0-62.846211 0c-17.938367 0-32.532642 14.583954-32.532642 32.522321l0 65.189139c0 17.938367 14.594275 32.532642 32.532642 32.532642l62.846211 0 47.240451 0 10.135487 0c17.938367 0 32.532642-14.594275 32.532642-32.532642L862.585664 253.938584zM754.63344 286.537283m-32.669915 0a31.653 31.653 0 1 0 65.33983 0 31.653 31.653 0 1 0-65.33983 0Z"  horiz-adv-x="1024" />

    
    <glyph glyph-name="shangyibu" unicode="&#58932;" d="M512.330016-118.341013c-274.208199 0-496.474398 225.211275-496.474398 502.981602 0 277.79898 222.265176 502.980579 496.474398 502.980579 274.208199 0 496.534773-225.181599 496.534773-502.980579C1008.86479 106.871285 786.538215-118.341013 512.330016-118.341013zM512.330016 793.31327c-222.756363 0-403.39242-182.969195-403.39242-408.671657 0-225.703485 180.636057-408.673703 403.39242-408.673703 222.817762 0 403.452795 182.970218 403.452795 408.673703C915.782811 610.344075 735.147778 793.31327 512.330016 793.31327zM714.087113 337.484593 431.958524 337.484593l65.021899-59.247382-0.12382-0.12382c9.457396-8.654101 15.474436-20.998243 15.474436-34.93772 0-26.030863-20.814048-47.151903-46.542013-47.151903-11.910261 0-22.716374 4.728698-31.005155 12.216229l-0.063445-0.12382L279.50432 349.582119l0.122797 0.153496c-9.455349 8.626471-15.47239 20.999266-15.47239 34.904974 0 13.935384 6.01704 26.276457 15.47239 34.93465l-0.122797 0.122797 155.215084 141.463895 0.063445-0.122797c8.28878 7.521301 19.094894 12.218276 31.005155 12.218276 25.727964 0 46.542013-21.12104 46.542013-47.152926 0-13.908778-6.01704-26.279526-15.474436-34.905998l0.12382-0.153496-65.021899-59.250452L714.087113 431.794539c25.665543 0 46.539966-21.122063 46.539966-47.15395C760.628102 358.606657 739.752656 337.484593 714.087113 337.484593z"  horiz-adv-x="1024" />

    
    <glyph glyph-name="xiayibu" unicode="&#58933;" d="M15.855618 384.641613c0 277.79898 222.326575 502.980579 496.534773 502.980579s496.473375-225.181599 496.473375-502.980579c0-277.770328-222.265176-502.981602-496.473375-502.981602S15.855618 106.871285 15.855618 384.641613zM108.937596 384.641613c0-225.703485 180.635033-408.673703 403.452795-408.673703 222.756363 0 403.39242 182.970218 403.39242 408.673703 0 225.702462-180.636057 408.671657-403.39242 408.671657C289.57263 793.31327 108.937596 610.344075 108.937596 384.641613zM264.092305 384.641613c0 26.031886 20.874423 47.15395 46.539966 47.15395l282.128589 0-65.020876 59.250452 0.122797 0.153496c-9.456373 8.626471-15.473413 20.99722-15.473413 34.905998 0 26.031886 20.814048 47.152926 46.540989 47.152926 11.911284 0 22.716374-4.696975 31.005155-12.218276l0.064468 0.122797 155.215084-141.463895-0.121773-0.122797c9.454326-8.65717 15.471366-20.999266 15.471366-34.93465 0-13.906731-6.01704-26.279526-15.471366-34.904974l0.121773-0.153496-155.215084-141.465942-0.064468 0.12382c-8.28878-7.487531-19.09387-12.216229-31.005155-12.216229-25.727964 0-46.540989 21.12104-46.540989 47.151903 0 13.939477 6.01704 26.28362 15.473413 34.93772l-0.122797 0.12382 65.020876 59.247382L310.633295 337.485617C284.967752 337.484593 264.092305 358.606657 264.092305 384.641613z"  horiz-adv-x="1024" />

    
    <glyph glyph-name="chaoshichuli" unicode="&#58935;" d="M814.434054 33.176866 209.595622 33.176866c-40.562834 0-73.144904 15.901155-89.420589 43.6348-16.278755 27.729551-14.297634 63.953567 5.453199 99.347682l305.175491 546.914184c19.865443 35.655058 49.4042 56.092529 81.005942 56.092529 31.611975 0 61.119009-20.410865 81.041758-56.036247L898.344139 176.108183c19.745716-35.400255 21.788236-71.597665 5.482875-99.327216C887.578957 49.050392 854.969259 33.176866 814.434054 33.176866L814.434054 33.176866 814.434054 33.176866zM511.845481 721.758584c-10.051937 0-21.560038-9.963932-30.889521-26.6428L175.780469 148.144294c-9.56382-17.162892-11.803837-32.584116-6.091742-42.308595 5.717212-9.705036 20.270672-15.275915 39.906895-15.275915l604.838432 0c19.666922 0 34.193777 5.54018 39.905872 15.275915 5.681396 9.698896 3.473101 25.116027-6.116301 42.277896L542.735002 695.11476C533.427008 711.794651 521.861602 721.758584 511.845481 721.758584L511.845481 721.758584 511.845481 721.758584zM512.017396 292.165432c-15.84692 0-28.706809 12.833283-28.706809 28.706809L483.310587 579.228403c0 15.84692 12.859889 28.705785 28.706809 28.705785 15.842827 0 28.705785-12.858866 28.705785-28.705785l0-258.355139C540.723182 304.998715 527.859199 292.165432 512.017396 292.165432L512.017396 292.165432 512.017396 292.165432zM468.954625 191.576479c0 11.274788 4.638647 22.478967 12.613272 30.453592 7.974625 7.966439 19.178805 12.609179 30.448476 12.609179 11.270694 0 22.474874-4.64274 30.444383-12.609179 7.970532-7.974625 12.613272-19.178805 12.613272-30.453592M555.075051 196.513932c0-11.274788-4.63967-22.478967-12.609179-30.453592-7.973602-7.966439-19.178805-12.609179-30.448476-12.609179-11.270694 0-22.474874 4.64274-30.445406 12.609179-7.969509 7.974625-12.617365 19.178805-12.617365 30.453592"  horiz-adv-x="1024" />

    
    <glyph glyph-name="bianji1" unicode="&#58905;" d="M721.559295 15.838989 247.390925 15.838989c-43.646056 0-79.030961 35.410488-79.030961 79.08008L168.359964 622.019998c0 43.670615 35.384905 79.05552 79.030961 79.05552l368.797507 0c33.758871 0 33.758871-52.698223 0-52.698223L247.390925 648.377296c-14.005992 0-26.357298-12.351306-26.357298-26.357298l0-527.10093c0-14.007015 12.355399-26.362414 26.357298-26.362414l474.16837 0c14.002922 0 26.357298 12.355399 26.357298 26.362414L747.916593 516.60411c0 33.780361 52.673663 33.780361 52.673663 0l0-421.685042C800.589233 51.248454 765.204327 15.838989 721.559295 15.838989L721.559295 15.838989 721.559295 15.838989zM547.860231 444.947094c-9.863648 11.536754-9.863648 26.360368 0 37.873586l261.781168 261.924431c10.726296 9.887184 27.171849 9.887184 37.874609 0 9.051143-9.891278 10.704806-20.588921 4.117784-32.129768l-4.117784-5.77247L585.735863 444.947094C575.03208 435.055816 558.560944 435.055816 547.860231 444.947094L547.860231 444.947094 547.860231 444.947094zM458.128557 437.524031 300.063565 437.524031c-33.757848 0-33.757848 52.718689 0 52.718689l158.064992 0C491.886405 490.242719 491.886405 437.524031 458.128557 437.524031L458.128557 437.524031 458.128557 437.524031zM616.188432 279.411967 300.063565 279.411967c-33.757848 0-33.757848 52.696176 0 52.696176l316.124867 0C649.948327 332.108143 649.948327 279.411967 616.188432 279.411967L616.188432 279.411967zM616.188432 279.411967"  horiz-adv-x="1024" />

    
    <glyph glyph-name="right" unicode="&#58894;" d="M782.967 335.785l-448.593-444.075c-26.584-26.252-69.62-26.252-96.159 0-26.538 26.249-26.538 68.86 0 95.206l400.566 396.427-400.565 396.423c-26.538 26.348-26.538 68.96 0 95.211 26.539 26.253 69.573 26.253 96.159 0l448.592-444.075c26.54-26.254 26.54-68.862 0-95.116z"  horiz-adv-x="1024" />

    
    <glyph glyph-name="left" unicode="&#58895;" d="M241.033 432.215l448.593 444.075c26.584 26.252 69.62 26.252 96.159 0 26.538-26.249 26.538-68.86 0-95.206l-400.566-396.427 400.565-396.423c26.538-26.348 26.538-68.96 0-95.211-26.539-26.253-69.573-26.253-96.159 0l-448.592 444.075c-26.54 26.254-26.54 68.862 0 95.116z"  horiz-adv-x="1024" />

    
    <glyph glyph-name="shuxian" unicode="&#58916;" d="M127.750569 852.647633c0 23.564695 18.926048 42.667775 42.638099 42.667775 23.548322 0 42.638099-19.079544 42.638099-42.667775l0-937.979858c0-23.564695-18.926048-42.667775-42.638099-42.667775-23.548322 0-42.638099 19.079544-42.638099 42.667775L127.750569 852.647633zM468.855364 852.647633c0 23.564695 18.926048 42.667775 42.638099 42.667775 23.548322 0 42.638099-19.079544 42.638099-42.667775l0-937.979858c0-23.564695-18.926048-42.667775-42.638099-42.667775-23.548322 0-42.638099 19.079544-42.638099 42.667775L468.855364 852.647633zM809.961182 852.647633c0 23.564695 18.926048 42.667775 42.638099 42.667775 23.548322 0 42.638099-19.079544 42.638099-42.667775l0-937.979858c0-23.564695-18.926048-42.667775-42.638099-42.667775-23.548322 0-42.638099 19.079544-42.638099 42.667775L809.961182 852.647633z"  horiz-adv-x="1024" />

    
    <glyph glyph-name="dengdai" unicode="&#58938;" d="M511.999 832.208c-247.538 0-448.208-200.669-448.208-448.207s200.67-448.208 448.208-448.208c247.539 0 448.208 200.67 448.208 448.208s-200.669 448.207-448.208 448.207zM511.998 7.932c-207.696 0-376.067 168.372-376.067 376.068 0 207.697 168.371 376.069 376.067 376.069 207.698 0 376.069-168.372 376.069-376.069 0-207.696-168.371-376.068-376.069-376.068zM474.707 308.021c-23.369 0-42.382 19.010-42.382 42.376v298.099c0 23.369 19.013 42.382 42.382 42.382 23.365 0 42.374-19.013 42.374-42.382v-255.718h181.195c23.369 0 42.381-19.012 42.381-42.381 0-23.366-19.012-42.376-42.381-42.376h-223.569z"  horiz-adv-x="1024" />

    
    <glyph glyph-name="yanjing1" unicode="&#58889;" d="M512.196986 47.802982c-224.104057 0-446.518636 279.019785-446.518636 334.889233 0 55.978942 223.39593 334.889233 446.518636 334.889233 222.414579 0 446.51966-279.046391 446.51966-334.889233C958.716646 327.17683 735.70241 47.802982 512.196986 47.802982zM512.196986 661.766234c-195.216123 0-390.704446-232.429677-390.704446-279.07402 0-46.549176 194.616466-279.07402 390.704446-279.07402 195.569164 0 390.704446 232.812393 390.704446 279.07402C902.901433 429.227064 706.813452 661.766234 512.196986 661.766234zM512.196986 243.154181c-77.045747 0-139.53701 62.478983-139.53701 139.538033 0 77.072353 62.491263 139.53701 139.53701 139.53701 77.072353 0 139.53701-62.464657 139.53701-139.53701C651.73502 305.633165 589.270363 243.154181 512.196986 243.154181zM512.196986 466.414011c-46.248324 0-83.721797-37.473473-83.721797-83.721797 0-46.235021 37.473473-83.721797 83.721797-83.721797s83.721797 37.486776 83.721797 83.721797C595.919806 428.940538 558.446333 466.414011 512.196986 466.414011z"  horiz-adv-x="1024" />

    
    <glyph glyph-name="xinshouyindao1" unicode="&#58883;" d="M875.693462 653.409676c0-33.348169 148.306538-105.165146 148.114514-131.408426 0-5.696712-10.049256-16.450056-16.770096-16.450056L536.387048 505.551194l0-129.808226L566.214777 376.895112 794.531316 383.935992c9.665208 0.32004 130.768346-78.985873 131.792474-108.749594 0.896112-24.515064-114.95837-114.254282-124.623578-114.510314L536.387048 152.48306l0-256.096012c0-13.44168-10.88136-24.387048-24.387048-24.387048-13.44168 0-24.387048 10.945368-24.387048 24.387048l0 254.55982-344.299037-10.689336c-5.312664-0.192024-14.977872 3.84048-15.105888 8.129016-0.704088 19.138392 113.422178 85.002625 112.71809 105.613202C240.030004 278.898862 122.127266 329.017127 121.551194 348.603575 121.423178 352.892112 129.296162 363.325416 134.544818 363.453432l353.068134 10.56132L487.612952 505.551194 163.732467 505.551194C151.378922 505.551194 0 613.660708 0 653.409676c0 32.836105 151.378922 145.04213 163.732467 145.04213l323.944493 0L487.67696 871.612952C487.612952 885.054632 498.55832 896 512 896 525.44168 896 536.387048 885.054632 536.387048 871.612952l0-73.161145 470.714839 0c6.72084 0 16.898112-10.88136 16.96212-16.64208C1024.064008 756.270534 875.693462 680.997125 875.693462 653.409676zM232.285036 324.344543c-4.608576-0.128016-6.144768 1.28016-6.464808-2.432304-0.64008-8.257032 65.928241-45.445681 66.696337-67.336417 0.64008-17.986248-58.759345-59.847481-58.503313-67.976497 0.128016-3.776472 0.576072-3.328416 5.248656-3.136392l248.351044 7.744968 78.601825 2.496312 213.338667 6.656832c8.513064 0.256032 90.379297 51.974497 89.611201 73.417177-0.96012 25.987248-88.971121 67.784473-97.35617 67.528441L566.214777 334.841855 487.612952 332.345543 232.285036 324.344543zM892.207526 752.622078 190.743843 752.622078c-10.753344 0-126.607826-70.600825-126.607826-99.340418 0-34.820353 119.11889-99.788474 129.936242-99.788474l698.135267 0c5.888736 0 36.036505-2.88036 36.548569 2.112264 1.216152 11.009376-106.63733 69.512689-106.63733 98.700338 0 24.131016 111.501938 85.130641 111.501938 96.07601C933.684711 755.43843 898.16027 752.622078 892.207526 752.622078z"  horiz-adv-x="1025" />

    
    <glyph glyph-name="shujuzhuanyi" unicode="&#58884;" d="M144.849 672.476h122.383v122.383h524.502v-576.951h34.966v611.918h-594.434l-122.383-122.383v-716.819h489.534v34.966h-454.568v646.886zM232.266 777.376v-69.934h-69.934l69.934 69.934zM855.839 113.008h-238.939v-34.967h297.217l-69.934 104.901h-34.966zM616.9 43.074l69.934-104.9h34.966l-46.622 69.934h238.939v34.966h-279.734zM232.266 252.875h122.383v174.834h-122.383v-174.834zM267.232 392.742h52.451v-104.9h-52.451v104.9zM704.317 567.576h-122.383v-314.7h122.383v314.7zM669.35 287.842h-52.451l0 244.767h52.451l-0-244.767zM529.483 252.875v244.768h-122.383v-244.768h122.383zM442.066 462.676h52.451v-174.834h-52.451v174.834zM284.716 777.376h489.534v-17.483h-489.534v17.483z"  horiz-adv-x="1024" />

    
    <glyph glyph-name="xiangqing1" unicode="&#58944;" d="M864-64l-704 0c-35.349333 0-64 28.650667-64 64L96 768c0 35.349333 28.650667 64 64 64l704 0c35.349333 0 64-28.650667 64-64l0-768C928-35.349333 899.349333-64 864-64zM864 768l-704 0 0-768 704 0L864 768zM288 618.666667l448 0c23.573333 0 42.666667-19.114667 42.666667-42.666667s-19.093333-42.666667-42.666667-42.666667l-448 0c-23.573333 0-42.666667 19.114667-42.666667 42.666667S264.426667 618.666667 288 618.666667zM288 426.666667l448 0c23.573333 0 42.666667-19.093333 42.666667-42.666667s-19.093333-42.666667-42.666667-42.666667l-448 0c-23.573333 0-42.666667 19.093333-42.666667 42.666667S264.426667 426.666667 288 426.666667zM288 234.666667l234.666667 0c23.552 0 42.666667-19.093333 42.666667-42.666667 0-23.573333-19.114667-42.666667-42.666667-42.666667l-234.666667 0c-23.573333 0-42.666667 19.093333-42.666667 42.666667C245.333333 215.573333 264.426667 234.666667 288 234.666667z"  horiz-adv-x="1024" />

    
    <glyph glyph-name="leimu" unicode="&#58901;" d="M350.392743 599.447673l574.527129 0c19.781623 0 35.950949 16.169326 35.950949 35.950949 0 19.781623-15.997312 35.950949-35.950949 35.950949l-574.527129 0c-19.781623 0-35.950949-16.169326-35.950949-35.950949C314.441794 615.617 330.61112 599.447673 350.392743 599.447673zM924.919872 419.864942l-574.527129 0c-19.781623 0-35.950949-16.169326-35.950949-35.950949 0-19.781623 16.169326-35.950949 35.950949-35.950949l574.527129 0c19.781623 0 35.950949 16.169326 35.950949 35.950949C960.870821 403.695616 944.701495 419.864942 924.919872 419.864942zM924.919872 168.552327l-574.527129 0c-19.781623 0-35.950949-15.997312-35.950949-35.950949s16.169326-35.950949 35.950949-35.950949l574.527129 0c19.781623 0 35.950949 15.997312 35.950949 35.950949S944.701495 168.552327 924.919872 168.552327zM63.129179 635.398623c0-39.73526 32.166639-71.901898 71.901898-71.901898s71.901898 32.166639 71.901898 71.901898-32.166639 71.901898-71.901898 71.901898S63.129179 674.961868 63.129179 635.398623zM63.129179 384.086007c0-39.73526 32.166639-71.901898 71.901898-71.901898s71.901898 32.166639 71.901898 71.901898c0 39.73526-32.166639 71.901898-71.901898 71.901898S63.129179 423.649252 63.129179 384.086007zM63.129179 132.601377c0-39.73526 32.166639-71.901898 71.901898-71.901898s71.901898 32.166639 71.901898 71.901898c0 39.73526-32.166639 71.901898-71.901898 71.901898S63.129179 172.336637 63.129179 132.601377z"  horiz-adv-x="1024" />

    
    <glyph glyph-name="guanxifenxi" unicode="&#58885;" d="M852.669378 209.309352c-58.868759 0-106.593713 47.748491-106.593713 106.652042 0 1.159406 0.050142 2.307555 0.088004 3.458775l-60.410881 13.647835c-12.637832-40.602743-39.223327-75.049277-74.170257-97.703229l50.731428-87.917352c9.818623 2.984984 20.231787 4.605901 31.023574 4.605901 58.869782 0 106.593713-47.750537 106.593713-106.652042s-47.723931-106.651019-106.593713-106.651019-106.593713 47.749514-106.593713 106.651019c0 35.240619 17.093307 66.479087 43.428092 85.898369l-50.560536 87.621617c-20.383236-8.010441-42.577724-12.412704-65.802682-12.412704-51.062979 0-97.159854 21.271466-129.931235 55.438637l-117.701702-92.824105c8.365528-15.22168 13.133112-32.701796 13.133112-51.30141 0-58.901505-47.723931-106.648972-106.593713-106.648972-58.869782 0-106.593713 47.747467-106.593713 106.648972 0 58.902528 47.723931 106.652042 106.593713 106.652042 27.741831 0 53.002145-10.610662 71.966055-27.987425l117.631094 92.767823c-18.085914 28.093848-28.582989 61.541635-28.582989 97.442286 0 43.231617 15.220656 82.899058 40.584324 113.951285L235.391636 639.648494c-17.491373-12.574387-38.927591-20.002566-62.108546-20.002566-58.870806 0-106.594737 47.749514-106.594737 106.651019 0 58.901505 47.723931 106.651019 106.594737 106.651019 58.868759 0 106.59269-47.749514 106.59269-106.651019 0-23.263843-7.467065-44.770669-20.10285-62.301951L398.550647 525.138484c31.232328 26.061562 71.41347 41.748846 115.258047 41.748846 15.763009 0 31.049157-2.033309 45.61899-5.838985l28.090778 71.206762c-33.505092 17.975397-56.298214 53.339836-56.298214 94.040816 0 58.901505 47.722908 106.651019 106.593713 106.651019 58.868759 0 106.59269-47.749514 106.59269-106.651019 0-58.901505-47.723931-106.651019-106.59269-106.651019-6.688329 0-13.223163 0.64673-19.567661 1.824555l-28.204365-71.493288c61.343113-28.725228 103.84409-91.031273 103.84409-163.27976 0-6.221702-0.324388-12.367679-0.941442-18.426675l60.385299-13.641695c15.480576 39.778982 54.104245 67.981301 99.337449 67.981301 58.869782 0 106.593713-47.748491 106.593713-106.648972C959.263092 257.057843 911.53916 209.309352 852.669378 209.309352zM621.535207 44.284855c0-39.676651 32.148188-71.841212 71.802326-71.841212 39.655162 0 71.801303 32.16456 71.801303 71.841212 0 39.675628-32.146141 71.840188-71.801303 71.840188C653.683395 116.125043 621.535207 83.961506 621.535207 44.284855zM172.716178 188.544423c-39.655162 0-71.802326-32.1707-71.802326-71.854515 0-39.684838 32.147164-71.855538 71.802326-71.855538 39.656185 0 71.802326 32.1707 71.802326 71.855538C244.518504 156.373723 212.372364 188.544423 172.716178 188.544423zM173.28309 797.020708c-39.656185 0-71.803349-32.1707-71.803349-71.855538s32.147164-71.854515 71.803349-71.854515c39.654138 0 71.801303 32.1707 71.801303 71.854515S212.937229 797.020708 173.28309 797.020708zM637.797589 653.309632c39.665395 0 71.819722 32.1707 71.819722 71.854515s-32.154327 71.855538-71.819722 71.855538c-39.662325 0-71.815629-32.1707-71.815629-71.855538S598.136288 653.309632 637.797589 653.309632zM513.808694 527.593396c-79.005378 0-143.052067-64.088644-143.052067-143.144164S434.804339 241.30609 513.808694 241.30609c79.006402 0 143.054113 64.087621 143.054113 143.143141S592.815095 527.593396 513.808694 527.593396zM852.669378 386.683109c-39.655162 0-71.802326-32.16456-71.802326-71.840188 0-39.676651 32.147164-71.841212 71.802326-71.841212s71.802326 32.16456 71.802326 71.841212C924.471704 354.518548 892.32454 386.683109 852.669378 386.683109z"  horiz-adv-x="1024" />

    
    <glyph glyph-name="biaoqian1" unicode="&#58886;" d="M710.997333 703.488c-64.512 0-116.394667-51.541333-116.394667-114.688 0-63.488 52.224-114.688 116.394667-114.688 64.512 0 116.394667 51.541333 116.394667 114.688C827.733333 651.946667 775.509333 703.488 710.997333 703.488L710.997333 703.488zM710.997333 513.365333c-42.325333 0-76.458667 33.792-76.458667 75.434667 0 41.642667 34.133333 75.434667 76.458667 75.434667 42.325333 0 76.458667-33.792 76.458667-75.434667C787.456 547.157333 753.322667 513.365333 710.997333 513.365333L710.997333 513.365333zM26.282667 363.52c-37.546667-48.810667-29.354667-115.029333 18.090667-164.181333l279.552-280.234667c35.84-37.546667 113.664-64.853333 175.445333-6.826667l480.938667 472.064c30.037333 29.696 52.224 84.309333 42.325333 125.269333L958.805333 738.986667c-10.581333 44.714667-39.253333 73.386667-84.650667 83.626667L641.024 885.418667c-40.96 9.216-97.28-12.288-127.317333-41.642667L26.282667 363.52 26.282667 363.52zM70.656 236.202667C10.24 302.421333 78.165333 354.986667 73.386667 349.866667L551.936 816.810667c30.037333 29.696 75.776 20.821333 81.578667 19.456l233.813333-61.781333c28.330667-6.485333 36.522667-14.677333 43.008-42.666667l63.146667-207.530667c12.970667-37.205333 4.096-65.194667-21.504-101.376L478.549333-43.690667c-53.930667-46.08-89.088-31.744-119.125333-6.144L70.656 236.202667 70.656 236.202667zM70.656 236.202667M202.410667 188.757333c-4.437333 0-9.216 1.706667-12.629333 5.12-46.421333 46.421333-86.357333 88.746667-28.330667 149.845333l155.306667 155.306667c6.826667 6.826667 18.090667 6.826667 24.917333 0 6.826667-6.826667 6.826667-18.090667 0-24.917333l-155.306667-155.306667c-38.912-38.912 0.341333-72.362667 28.330667-100.010667 6.826667-6.826667 6.826667-18.090667 0-24.917333C211.626667 190.464 207.189333 188.757333 202.410667 188.757333L202.410667 188.757333zM202.410667 188.757333M266.922667 166.912l-20.138667 20.138667c-3.072 3.072-7.850667 3.072-10.922667 0l-13.653333-13.653333c-3.072-3.072-3.072-7.850667 0-10.922667l20.138667-20.138667c3.072-3.072 7.850667-3.072 10.922667 0l13.653333 13.653333C269.994667 159.061333 269.994667 163.84 266.922667 166.912z"  horiz-adv-x="1026" />

    
    <glyph glyph-name="lianjie" unicode="&#58904;" d="M823.680129 692.800577l-2.881047 2.882646c-66.47513 66.47553-175.227596 66.47553-241.699728 0l-154.000388-154.043558c-66.476129-66.476129-66.476129-175.226197 0-241.745297l2.836477-2.793106c5.535847-5.535247 11.437845-10.521866 17.47715-15.189701l56.363985 56.412952c-6.587134 3.841396-12.810315 8.553201-18.437499 14.181385l-2.836677 2.792107c-36.096127 36.096127-36.096127 94.838899 0 130.936625l154.090527 153.997989c36.007587 36.097126 94.703991 36.097126 130.801716 0l2.884045-2.835677c36.097526-36.099125 36.097526-94.842497 0-130.894653l-69.633988-69.678958c12.076812-29.873746 17.796934-61.718355 17.249305-93.42146l107.744149 107.697181C890.159256 517.573981 890.159256 626.325447 823.680129 692.800577L823.680129 692.800577zM596.06785 470.863051c-5.532249 5.534847-11.437246 10.522865-17.521121 15.142733l-56.320015-56.364985c6.587534-3.888963 12.811314-8.5552 18.440497-14.182984l2.881047-2.881446c36.096527-36.051157 36.096527-94.79393 0-130.893654l-154.042959-153.99699c-36.099125-36.050558-94.795928-36.050558-130.894653 0l-2.882446 2.881047c-36.097126 36.097526-36.097126 94.840898 0 130.846686l69.678958 69.680956c-12.076812 29.876943-17.842903 61.762725-17.294274 93.468828l-107.78812-107.653211c-66.476129-66.521099-66.476129-175.312538 0-241.744697l2.882646-2.882046c66.47513-66.433158 175.226596-66.433158 241.701327 0l153.998389 154.04096c66.38619 66.478128 66.38619 175.271166 0 241.703125L596.06785 470.863051 596.06785 470.863051z"  horiz-adv-x="1024" />

    
    <glyph glyph-name="shibai" unicode="&#58925;" d="M512.316202 808.842964c-239.942791 0-434.452833-194.512089-434.452833-434.452833 0-239.942791 194.511065-434.45488 434.452833-434.45488s434.452833 194.512089 434.452833 434.45488C946.769035 614.330876 752.257969 808.842964 512.316202 808.842964zM512.316202 5.104507c-203.624631 0-369.285624 165.660994-369.285624 369.285624s165.659971 369.285624 369.285624 369.285624S881.600803 578.014762 881.600803 374.389108 715.940832 5.104507 512.316202 5.104507zM684.747389 546.820296l0 0.001023c-12.992919 12.992919-35.849486 11.400654-50.79078-3.539616L512.316202 421.640272 390.673747 543.28068c-14.939247 14.941294-37.795814 16.533558-50.788733 3.539616l0-0.001023c-12.994965-12.992919-11.402701-35.848463 3.538593-50.788733l121.642454-121.641431L343.422583 252.747677c-14.941294-14.941294-16.533558-37.796838-3.538593-50.79078 12.992919-12.994965 35.849486-11.400654 50.788733 3.539616l121.642454 121.642454 121.641431-121.642454c14.941294-14.941294 37.796838-16.534582 50.79078-3.539616 12.994965 12.992919 11.400654 35.849486-3.538593 50.79078L559.566342 374.389108l121.641431 121.641431C696.148044 510.971833 697.742355 533.826354 684.747389 546.820296z"  horiz-adv-x="1024" />

    
    <glyph glyph-name="yuan1" unicode="&#58912;" d="M511.254521 385.741667m-445.115684 0a434.978 434.978 0 1 0 890.231367 0 434.978 434.978 0 1 0-890.231367 0Z"  horiz-adv-x="1024" />

    
    <glyph glyph-name="tianjiawenjian" unicode="&#58924;" d="M865.12 737.12 453.152 737.12c0 64.992-52.704 117.696-117.696 117.696L158.88 854.816c-64.992 0-117.696-52.704-117.696-117.696l0-706.24c0-64.992 52.704-117.696 117.696-117.696l706.24 0c64.992 0 117.696 52.704 117.696 117.696L982.816 619.424C982.848 684.416 930.144 737.12 865.12 737.12zM923.968 560.576l-4.736 0 0-58.848 4.736 0 0-470.848c0-32.48-26.368-58.848-58.848-58.848L158.88-27.968c-32.48 0-58.848 26.368-58.848 58.848L100.032 501.696l4.832 0 0 58.848L100.032 560.544 100.032 737.12c0 32.48 26.368 58.848 58.848 58.848l176.576 0c32.48 0 58.848-26.368 58.848-58.848l0-58.848 470.848 0c32.48 0 58.848-26.368 58.848-58.848L924 560.576zM537.472 562.08l-38.176 0L499.296 371.2 308.448 371.2l0-38.176 190.88 0 0-190.88 38.176 0 0 190.88 190.88 0L728.384 371.2l-190.88 0L537.504 562.08z"  horiz-adv-x="1024" />

    
    <glyph glyph-name="zhixing01" unicode="&#58930;" d="M511.871575 792.975579c-226.062666 0-409.322479-183.259814-409.322479-409.322479s183.259814-409.322479 409.322479-409.322479 409.322479 183.259814 409.322479 409.322479S737.934241 792.975579 511.871575 792.975579zM766.574534 128.951163c-33.095769-33.096792-71.623247-59.075467-114.51001-77.214593-44.375673-18.769482-91.543949-28.28623-140.192949-28.28623-48.649 0-95.816253 9.516748-140.192949 28.28623-42.886763 18.139126-81.414241 44.118823-114.51001 77.214593-33.096792 33.095769-59.075467 71.623247-77.214593 114.51001-18.769482 44.375673-28.28623 91.543949-28.28623 140.192949s9.516748 95.816253 28.28623 140.192949c18.140149 42.886763 44.118823 81.414241 77.214593 114.51001 33.095769 33.096792 71.623247 59.075467 114.51001 77.214593 44.376697 18.769482 91.543949 28.28623 140.192949 28.28623 48.649 0 95.816253-9.516748 140.192949-28.28623 42.886763-18.140149 81.414241-44.118823 114.51001-77.214593 33.096792-33.095769 59.075467-71.623247 77.214593-114.51001 18.769482-44.376697 28.28623-91.543949 28.28623-140.192949s-9.516748-95.816253-28.28623-140.192949C825.650001 200.573387 799.671327 162.046932 766.574534 128.951163zM674.503583 401.989723l-225.049592 112.502283c-13.633508 6.815219-29.674856-3.096525-29.674856-18.336624l0-225.004567c0-15.240099 16.041348-25.151843 29.674856-18.336624l225.049592 112.502283C689.616792 372.871545 689.616792 394.434653 674.503583 401.989723z"  horiz-adv-x="1024" />

    
    <glyph glyph-name="wenjianjia" unicode="&#58918;" d="M861.040535-7.894551c0-30.909987-25.074072-55.877635-55.924707-55.877635l-698.703239 0 97.848539 461.131449c0 30.879288 24.919553 55.906288 55.770188 55.906288L902.95925 453.26555c30.855752 0 55.828516-25.027 55.828516-55.906288L861.040535-7.894551 861.040535-7.894551 861.040535-7.894551zM218.161718 495.207801l628.870778 0L847.032496 550.098969c0 30.879288-25.076118 55.906288-55.877635 55.906288L455.787744 606.005256l0 50.658773c0 30.827099-25.027 55.877635-55.877635 55.877635L120.367415 712.541665c-30.855752 0-55.877635-25.050536-55.877635-55.877635l0-664.558581 97.747231 447.175599C162.237011 470.162382 187.311083 495.207801 218.161718 495.207801L218.161718 495.207801 218.161718 495.207801zM218.161718 495.207801"  horiz-adv-x="1024" />

    
    <glyph glyph-name="combinedshape" unicode="&#58909;" d="M892.38883 70.272179C892.38883 15.520137 847.994786-28.865911 793.234731-28.865911L198.310187-28.865911C143.550131-28.865911 99.156096 15.520137 99.156096 70.272179L99.156096 665.094733C99.156096 719.846784 143.550131 764.230827 198.310187 764.230827L594.924553 764.230827 694.08064 863.368917 165.256149 863.368917C73.994069 863.368917 0 789.390848 0 698.142763L0 37.228151C0-54.025933 73.994069-128 165.256149-128L826.284766-128C917.550848-128 991.542921-54.025933 991.542921 37.226155L991.542921 565.956642 892.38883 466.818551 892.38883 70.272179ZM831.167471 594.360738 582.725436 345.918703C597.232998 295.142229 582.725436 237.11197 542.829636 197.216171 495.680051 150.066586 424.955674 139.185911 366.925414 166.387601L470.291814 269.753993C490.23971 289.701897 490.23971 322.34391 470.291814 342.291814 450.34391 362.23971 417.701897 362.23971 397.753993 342.291814L294.387601 238.925414C267.185911 296.955674 276.253141 367.680051 325.216171 414.829636 365.11197 454.725436 423.142229 467.419554 473.918703 454.725436L720.547294 701.354027C706.039731 752.1305 720.547294 810.160751 760.443093 850.056559 809.406123 899.019588 880.1305 908.08681 936.347307 880.885129L832.980915 777.518737C813.033011 757.570833 813.033011 724.928819 832.980915 704.980915 852.928819 685.033011 885.570833 685.033011 905.518737 704.980915L1008.885129 808.347307C1036.08681 750.317056 1027.019588 679.592678 978.056559 632.443093 939.974204 592.547294 881.943945 579.853175 831.167471 594.360738Z"  horiz-adv-x="1025" />

    
    <glyph glyph-name="wenjianjia1" unicode="&#58919;" d="M876.479155 648.445858 540.475542 648.445858l-28.018124 40.447201c-28.67611 53.323463-36.21583 80.893378-80.893378 80.893378l-283.128359 0c-44.677549 0-80.893378-36.21583-80.893378-80.893378l0-121.340579 0-40.447201 0-444.915116c0-44.677549 36.21583-80.893378 80.893378-80.893378l728.043475 0c44.677549 0 80.893378 36.21583 80.893378 80.893378L957.372533 567.552479C957.373557 612.230028 921.156704 648.445858 876.479155 648.445858z"  horiz-adv-x="1024" />

    
    <glyph glyph-name="liebiao" unicode="&#58910;" d="M774.85871 766.458645l-16.60826 0c-13.576203 38.134529-50.151213 65.520249-93.037976 65.520249L358.200148 831.978894c-42.886763 0-79.461773-27.386744-93.037976-65.520249l-16.60826 0c-66.505693 0-120.611985-53.896514-120.611985-120.120798l0-589.686337c0-66.224284 54.106292-120.120798 120.611985-120.120798l526.304797 0c66.505693 0 120.611985 53.896514 120.611985 120.120798L895.470695 646.337847C895.469672 712.562131 841.364403 766.458645 774.85871 766.458645zM358.200148 766.458645l307.011302 0c18.139126 0 32.894178-14.6957 32.894178-32.760125 0-18.065448-14.755052-32.760125-32.894178-32.760125L358.200148 700.938396c-18.139126 0-32.894178 14.6957-32.894178 32.760125C325.306994 751.763968 340.062046 766.458645 358.200148 766.458645zM829.682339 56.65151c0-30.115901-24.595164-54.600549-54.82363-54.600549L248.553912 2.050961c-30.227442 0-54.82363 24.484647-54.82363 54.600549L193.730283 646.337847c0 30.115901 24.595164 54.600549 54.82363 54.600549l16.60826 0c13.576203-38.134529 50.151213-65.520249 93.037976-65.520249l307.011302 0c42.886763 0 79.461773 27.386744 93.037976 65.520249l16.60826 0c30.227442 0 54.82363-24.484647 54.82363-54.600549L829.681316 56.65151zM314.342268 537.136749c-24.222681 0-43.858904-19.556405-43.858904-43.680848 0-24.124444 19.636223-43.680848 43.858904-43.680848s43.858904 19.556405 43.858904 43.680848C358.200148 517.580345 338.563926 537.136749 314.342268 537.136749zM314.342268 362.414379c-24.222681 0-43.858904-19.556405-43.858904-43.680848 0-24.124444 19.636223-43.680848 43.858904-43.680848s43.858904 19.556405 43.858904 43.680848C358.200148 342.857974 338.563926 362.414379 314.342268 362.414379zM709.070354 526.216026 445.917956 526.216026c-18.170848 0-32.894178-14.674211-32.894178-32.760125s14.72333-32.760125 32.894178-32.760125l263.152399 0c18.170848 0 32.894178 14.674211 32.894178 32.760125S727.241202 526.216026 709.070354 526.216026zM709.070354 351.494679 445.917956 351.494679c-18.170848 0-32.894178-14.674211-32.894178-32.760125 0-18.085914 14.72333-32.760125 32.894178-32.760125l263.152399 0c18.170848 0 32.894178 14.674211 32.894178 32.760125C741.964532 336.820468 727.241202 351.494679 709.070354 351.494679zM314.342268 187.693032c-24.222681 0-43.858904-19.556405-43.858904-43.680848 0-24.124444 19.636223-43.680848 43.858904-43.680848s43.858904 19.556405 43.858904 43.680848C358.200148 168.136627 338.563926 187.693032 314.342268 187.693032zM709.070354 176.772308 445.917956 176.772308c-18.170848 0-32.894178-14.674211-32.894178-32.760125s14.72333-32.760125 32.894178-32.760125l263.152399 0c18.170848 0 32.894178 14.674211 32.894178 32.760125S727.241202 176.772308 709.070354 176.772308z"  horiz-adv-x="1024" />

    
    <glyph glyph-name="tianjia1" unicode="&#59361;" d="M994.691854 398.644096c-0.993601 33.028264-5.976952 64.952414-13.310768 95.953569l28.288452 7.579402c7.96313-33.430411 13.310768-67.885121 14.320741-103.532971L994.691854 398.644096zM937.219585 612.578263l25.398722 14.663538c16.46348-30.45268 29.436567-62.983632 39.564948-96.738421l-28.310964-7.585541C964.426434 554.173789 952.428529 584.325625 937.219585 612.578263zM862.815175 714.090264l20.684491 20.684491c23.878134-25.329139 45.805905-52.535989 64.188027-82.320469l-25.349604-14.634887C905.254504 665.392582 884.914856 690.586649 862.815175 714.090264zM757.88134 799.35265l14.169296 25.686262c32.996542-19.562981 63.279358-43.087062 90.975333-69.303381L842.308733 735.018295C816.551865 759.295507 788.469092 781.143462 757.88134 799.35265zM650.929606-77.883035c31.252881 9.448926 61.406764 21.449901 89.657355 36.658846l14.663538-25.396675c-30.45268-16.465526-62.983632-29.442707-96.735351-39.571088L650.929606-77.883035zM641.864408 848.284662l7.02581 28.428641c33.842791-9.648465 66.408535-22.346291 97.107824-38.243899l-14.122225-25.59826C703.398058 827.555147 673.202221 839.287001 641.864408 848.284662zM526.652794 866.701575 526.652794 896c32.251598-0.913785 63.381686-5.678156 93.747387-12.45224l-7.0166-28.38157C585.273179 861.386682 556.479229 865.805186 526.652794 866.701575zM691.332617 395.108679c6.13556 0 11.106633-4.975166 11.106633-11.109702 0-6.13556-4.972096-11.109702-11.106633-11.109702L523.107144 372.889274l0-168.222403c0-6.13556-4.972096-11.109702-11.109702-11.109702-6.13556 0-11.107656 4.975166-11.107656 11.109702L500.889786 372.888251 332.668407 372.888251c-6.137607 0-11.112772 4.975166-11.112772 11.109702 0 6.13556 4.975166 11.109702 11.112772 11.109702l168.222403 0L500.890809 563.330058c0 6.137607 4.972096 11.109702 11.107656 11.109702 6.137607 0 11.109702-4.972096 11.109702-11.109702l0-168.222403L691.332617 395.107656zM393.815259 881.679259c33.432458 7.96313 67.891261 13.310768 103.53911 14.320741l0-29.298425c-33.028264-0.993601-64.955484-5.976952-95.959709-13.313838L393.815259 881.679259zM268.750525 834.618818c30.45268 16.465526 62.983632 29.442707 96.738421 39.571088l7.585541-28.308917c-31.252881-9.448926-61.407787-21.449901-89.660424-36.661915L268.750525 834.618818zM160.98017 12.255259l20.717236 20.717236c25.756868-24.277212 53.839642-46.125167 84.427393-64.334355l-14.169296-25.686262C218.959984-37.485141 188.676145-13.96106 160.98017 12.255259zM161.335247 755.600459c25.296394 23.837203 52.465383 45.73223 82.203816 64.087746l14.637956-25.349604c-27.532251-17.058003-52.685387-37.367975-76.156257-59.423656L161.335247 755.600459zM76.315377 115.536504l25.349604 14.634887c17.084608-27.576252 37.426302-52.767249 59.525984-76.270864l-20.684491-20.684491C116.625269 58.541081 94.700568 85.751 76.315377 115.536504zM70.959553 644.045008c19.536376 32.949472 43.025666 63.191357 69.197984 90.86175l20.717236-20.720306c-24.233211-25.727193-46.046375-53.769036-64.228958-84.312787L70.959553 644.045008zM47.723012 513.853664l-28.43171 7.02888c9.645395 33.839721 22.343221 66.408535 38.23776 97.107824l25.60133-14.122225C68.446388 575.38936 56.714534 545.194546 47.723012 513.853664zM29.309169 398.644096 0.009721 398.644096c0.913785 32.251598 5.675086 63.381686 12.44917 93.744317l28.38157-7.014554C34.620992 457.265504 30.205558 428.470531 29.309169 398.644096zM42.621984 273.389033l-28.290498-7.579402c-7.96313 33.429388-13.310768 67.888191-14.320741 103.53604l29.298425 0C30.301746 336.317407 35.286121 304.393258 42.621984 273.389033zM86.784509 155.411505l-25.398722-14.664561c-16.46348 30.450633-29.436567 62.983632-39.568018 96.735351l28.310964 7.585541C59.577659 213.815978 71.575565 183.662095 86.784509 155.411505zM382.144801-80.290802l-7.02888-28.428641c-33.839721 9.648465-66.408535 22.346291-97.107824 38.240829l14.122225 25.59826C320.609105-59.56538 350.803919-71.29621 382.144801-80.290802zM497.354369-98.705668l0-29.298425c-32.251598 0.913785-63.381686 5.675086-93.747387 12.45224l7.0166 28.3785C438.732961-93.393845 467.527934-97.808256 497.354369-98.705668zM630.188834-113.680282c-33.429388-7.96313-67.888191-13.313838-103.53604-14.323811L526.652794-98.705668c33.028264 0.993601 64.952414 5.976952 95.956639 13.313838L630.188834-113.680282zM862.665777 12.398518c-25.296394-23.837203-52.465383-45.73223-82.203816-64.087746l-14.634887 25.349604c27.529181 17.058003 52.679247 37.364906 76.153188 59.420586L862.665777 12.398518zM953.037378 123.950899c-19.536376-32.949472-43.025666-63.191357-69.194914-90.85868l-20.720306 20.717236c24.233211 25.727193 46.046375 53.769036 64.228958 84.312787L953.037378 123.950899zM976.278011 254.137127l28.43171-7.02581c-9.648465-33.839721-22.346291-66.408535-38.240829-97.107824l-25.59826 14.122225C955.551565 192.603477 967.282396 222.799314 976.278011 254.137127zM994.691854 369.345671l29.298425 0c-0.913785-32.249551-5.675086-63.381686-12.44917-93.744317l-28.38157 7.0166C989.376961 310.727333 993.795465 339.522306 994.691854 369.345671z"  horiz-adv-x="1024" />

    
    <glyph glyph-name="yijianfankui" unicode="&#58937;" d="M646.24 610.971c49.356 0 89.51-40.154 89.51-89.51 0-10.063-1.795-20.182-5.336-30.076l-22.443-62.709 70.553 3.154 1.98 0.122c74.035 0 134.266-60.231 134.266-134.264s-60.232-134.264-134.266-134.264l-454.412-0-11.824 0.978c-115.001 9.511-205.085 107.374-205.085 222.795 0 123.389 100.384 223.774 223.774 223.774 60.121 0 116.567-23.557 158.938-66.331l45.988-46.425 26.666 59.659c14.416 32.256 46.483 53.097 81.692 53.097M646.24 655.726c-54.661 0-101.6-32.716-122.552-79.59-48.659 49.123-116.119 79.59-190.733 79.59-148.304 0-268.528-120.222-268.528-268.528 0-140.749 108.349-256.001 246.15-267.398v-1.13h469.927c98.866 0 179.021 80.148 179.021 179.018s-80.156 179.019-179.021 179.019c-2.683 0-5.295-0.284-7.953-0.401 5.057 14.131 7.953 29.288 7.953 45.155 0 74.152-60.114 134.264-134.264 134.264v0zM489.597 376.007c0 89.51-60.11 139.859-134.264 139.859-20.555 0-39.817-2.196-57.237-10.454l34.712-33.315c7.239 1.888 14.695-1.685 22.525-1.685 49.438 0 89.512-27.273 89.512-94.405h-66.774c0 0 2.274-6.42 6.818-11.005l65.87-63.609c9.088-9.17 23.836-7.771 32.928 1.399l65.859 61.511c4.557 4.583 6.824 11.704 6.824 11.704l-66.774-0zM355.333 292.094c-49.431 0-89.506 39.159-89.506 83.914h63.288c0 22.378-2.18 17.048-6.553 21.419l-63.287 66.089c-8.745 8.738-22.914 10.137-31.649 1.399l-63.299-68.188c-4.367-4.371-6.554 1.658-6.554-20.719h63.301c0-67.132 60.108-128.668 134.257-128.668 20.562 0 39.825 7.789 57.237 16.052l-34.706 33.313c-7.242-1.889-14.698-4.61-22.528-4.61z"  horiz-adv-x="1024" />

    
    <glyph glyph-name="liucheng" unicode="&#58936;" d="M608 832 480 832c-53.013333 0-96-42.986667-96-96s42.986667-96 96-96l128 0c53.013333 0 96 42.986667 96 96S661.013333 832 608 832zM608 704 480 704c-17.6 0-32 14.4-32 32s14.4 32 32 32l128 0c17.6 0 32-14.4 32-32S625.6 704 608 704zM608 512 480 512c-53.013333 0-96-42.986667-96-96s42.986667-96 96-96l128 0c53.013333 0 96 42.986667 96 96S661.013333 512 608 512zM608 384 480 384c-17.6 0-32 14.4-32 32s14.4 32 32 32l128 0c17.6 0 32-14.4 32-32S625.6 384 608 384zM608 192 480 192c-53.013333 0-96-42.986667-96-96s42.986667-96 96-96l128 0c53.013333 0 96 42.986667 96 96S661.013333 192 608 192zM608 64 480 64c-17.6 0-32 14.4-32 32s14.4 32 32 32l128 0c17.6 0 32-14.4 32-32S625.6 64 608 64zM256 128c-34.24 0-66.346667 13.333333-90.56 37.44C141.333333 189.653333 128 221.76 128 256c0 34.24 13.333333 66.346667 37.44 90.56 24.213333 24.213333 56.32 37.44 90.56 37.44l64 0 0 64-64 0c-106.026667 0-192-85.973333-192-192l0 0c0-106.026667 85.973333-192 192-192l0-64 96 96-96 96L256 128zM832 768l-64 0 0-64 64 0c34.24 0 66.346667-13.333333 90.56-37.44 24.213333-24.213333 37.44-56.32 37.44-90.56 0-34.24-13.333333-66.346667-37.44-90.56C898.346667 461.333333 866.24 448 832 448l0 64-96-96 96-96 0 64c106.026667 0 192 85.973333 192 192l0 0C1024 682.026667 938.026667 768 832 768z"  horiz-adv-x="1024" />

    
    <glyph glyph-name="shouye-copy-copy-copy" unicode="&#58940;" d="M1009.302 343.645l-501.053 468.483-501.053-467.107c-9.802-9.138-10.349-24.507-1.188-34.299 9.151-9.785 24.538-10.338 34.333-1.179l467.871 436.154 467.892-437.482c4.694-4.386 10.653-6.554 16.601-6.554 6.475 0 12.953 2.572 17.731 7.69 9.169 9.785 8.665 25.139-1.136 34.292v0zM1009.302 343.645zM856.405 334.023c-13.411 0-24.29-10.873-24.29-24.267v-372.095h-194.331v258.848h-259.104v-258.848h-194.323v372.095c0 13.394-10.868 24.267-24.289 24.267-13.429 0-24.295-10.873-24.295-24.267v-420.627h291.493v258.847h161.94v-258.847h291.486v420.627c0.001 13.394-10.881 24.267-24.286 24.267v0zM856.405 334.023zM686.37 681.848h145.744v-129.421c0-13.414 10.881-24.272 24.29-24.272 13.407 0 24.287 10.858 24.287 24.272v177.953h-194.322c-13.414 0-24.295-10.852-24.295-24.267-0.001-13.41 10.881-24.267 24.295-24.267v0zM686.37 681.848z"  horiz-adv-x="1024" />

    
    <glyph glyph-name="xiangqing4" unicode="&#58964;" d="M513.774925 831.373097c-247.483534 0-448.108854-200.641693-448.108855-448.140577 0-247.435439 200.62532-448.109878 448.108855-448.109877 247.496837 0 448.107831 200.674439 448.10783 448.109877 0.001023 247.498884-200.60997 448.140577-448.10783 448.140577z m0-832.233442c-219.711004 0-384.468418 172.102706-384.468419 384.092865 0 212.051557 172.479283 384.468418 384.468419 384.468419 211.990159 0 384.452046-172.416861 384.452045-384.468419 0-211.990159-177.839361-384.282177-384.452045-384.282176v0.189311zM573.617871 199.562361c-12.471033 0-21.255093 2.001587-26.319435 6.001691-5.063319 3.971451-7.594979 11.44261-7.594979 22.442128 0 4.375657 0.780783 10.815323 2.360767 19.380396 1.546216 8.502651 3.312442 16.09763 5.265934 22.756283l24.068162 82.7384c2.360767 7.594979 3.970428 15.908318 4.845355 25.037232 0.873903 9.096169 1.312902 15.440667 1.312902 19.066241 0 17.441231-6.299473 31.601742-18.895349 42.541909-12.612249 10.909467-30.523177 16.34834-53.780881 16.34834-12.894681 0-26.568099-2.25025-41.024345-6.68833-14.456247-4.439102-29.601178-9.816576-45.417399-16.067953l-6.455016-25.601075c4.688789 1.719154 10.31595 3.471055 16.879436 5.409197 6.548136 1.874697 12.95608 2.812045 19.22383 2.812045 12.722766 0 21.333888-2.062985 25.835412-6.251378 4.501524-4.157693 6.736425-11.565407 6.736424-22.193464 0-5.875824-0.719384-12.376888-2.188852-19.472494-1.469468-7.095605-3.282766-14.660908-5.438872-22.597671l-24.162306-83.084277c-2.157129-8.69094-3.703345-16.566304-4.687766-23.440875-0.971118-6.939039-1.455141-13.723559-1.455141-20.349467 0-17.098423 6.486738-31.162744 19.458167-42.230823 12.987802-11.124362 31.18014-16.627702 54.591339-16.627703 15.222703 0 28.585035 1.938142 40.104394 5.813403 11.518335 3.876284 26.927279 9.502421 46.25958 16.942881l6.424316 25.568328c-3.313465-1.502213-8.674567-3.251044-16.083304-5.251607-7.405667-2.00261-14.017248-3.001357-19.862373-3.001357z m25.272593 392.56584c-11.222599 10.219759-24.740474 15.347546-40.542368 15.347546-15.816221 0-29.383214-5.127787-40.697911-15.347546-11.31572-10.220782-16.972557-22.598694-16.972556-36.979216 0-14.440897 5.656837-26.693965 16.972556-36.820604 11.314697-10.190083 24.880667-15.253402 40.697911-15.253402 15.801894 0 29.319769 5.063319 40.542368 15.253402 11.219529 10.126638 16.815991 22.38073 16.815991 36.820604 0 14.379499-5.596462 26.75741-16.815991 36.979216z"  horiz-adv-x="1024" />

    
    <glyph glyph-name="lianxian" unicode="&#59467;" d="M946.501952 111.876276L820.381509 237.997742c-11.263531 11.262508-32.656771 12.678764-38.752605-2.03638-1.63115-3.932566-2.036379-14.993482-2.03638-14.993482v-85.22708H352.663038c-56.814983 0-103.036701 46.221718-103.036701 103.034654 0 56.81396 46.221718 103.037724 103.036701 103.037725h46.746674v-0.001024h340.493881c105.621573 0 191.551664 85.929068 191.551664 191.551664s-85.929068 191.551664-191.551664 191.551664H360.927259C341.956186 786.797879 284.288788 831.923636 216.275765 831.923636c-83.407642 0-151.262052-67.856457-151.262052-151.262053 0-83.408665 67.856457-151.263076 151.262052-151.263075 68.013023 0 125.680421 45.12371 144.651494 107.005082H739.90564c56.814983 0 103.036701-46.221718 103.036701-103.036701s-46.221718-103.036701-103.036701-103.036701H352.663038c-105.622596 0-191.551664-85.930091-191.551664-191.552687 0-105.620549 85.929068-191.550641 191.551664-191.550641h426.93051v-80.866772s-0.01228-12.377912 2.036379-17.318434c6.094812-14.715143 27.488051-15.33322 38.752606-4.069689L946.500928 71.091384c11.263531 11.261485 11.263531 29.52443 0.001024 40.784892zM216.275765 617.912447c-34.597983 0-62.747089 28.149107-62.747089 62.74709 0 34.596959 28.149107 62.747089 62.747089 62.747089 34.599006 0 62.747089-28.149107 62.74709-62.747089-0.001023-34.599006-28.148084-62.747089-62.74709-62.74709z"  horiz-adv-x="1024" />

    
    <glyph glyph-name="group-add" unicode="&#58941;" d="M576.027 447.84v191.793h-127.872v-191.793h-192v-127.861h192v-192.155h127.872v192.154h192.261v127.862h-192.261zM447.984 896h-447.847v-448.006h63.997v384.009h383.85zM576.135 896h447.848v-448.006h-63.997v384.009h-383.852zM447.984-128.134h-447.847v448.006h63.997v-384.010h383.85zM576.135-128.134h447.848v448.006h-63.997v-384.010h-383.852z"  horiz-adv-x="1024" />

    


  </font>
</defs>
</svg>
